<svg width="8647" height="1797" viewBox="0 0 8647 1797" fill="none" xmlns="http://www.w3.org/2000/svg">
<g clip-path="url(#clip0_1208_90)">
<rect width="8647" height="1797" fill="#181818"/>
<g filter="url(#filter0_f_1208_90)">
<path d="M9807.54 3767.74C7935.09 5203.95 6783.34 2532.14 6281.13 1877.39C5778.92 1222.63 7362.89 1876.82 7988.88 1396.67C8614.87 916.525 9529.45 1058.07 10031.7 1712.82C10533.9 2367.58 10433.5 3287.6 9807.54 3767.74Z" fill="url(#paint0_linear_1208_90)"/>
</g>
<g filter="url(#filter1_f_1208_90)">
<ellipse cx="923.127" cy="1348.14" rx="923.127" ry="1348.14" transform="matrix(0.958653 -0.284577 0.336834 0.941564 -537 -408.599)" fill="url(#paint1_linear_1208_90)"/>
</g>
<path opacity="0.8" d="M975.522 815.439C977.651 819.128 977.651 823.673 975.522 827.361L809.531 1114.87C807.401 1118.56 803.465 1120.83 799.206 1120.83L467.224 1120.83C462.964 1120.83 459.028 1118.56 456.899 1114.87L290.908 827.361C288.778 823.673 288.778 819.128 290.908 815.439L456.899 527.934C459.028 524.246 462.964 521.973 467.224 521.973L799.206 521.973C803.465 521.973 807.401 524.246 809.531 527.934L975.522 815.439Z" fill="url(#paint2_linear_1208_90)"/>
<path opacity="0.9" d="M892.065 815.433C894.195 819.122 894.195 823.667 892.065 827.356L767.803 1042.58C765.673 1046.27 761.737 1048.55 757.478 1048.55L508.952 1048.55C504.693 1048.55 500.757 1046.27 498.627 1042.58L374.365 827.356C372.235 823.667 372.235 819.122 374.365 815.433L498.627 600.204C500.757 596.515 504.693 594.243 508.952 594.243L757.478 594.243C761.737 594.243 765.673 596.515 767.803 600.204L892.065 815.433Z" fill="url(#paint3_linear_1208_90)"/>
<path d="M808.609 815.437C810.738 819.125 810.738 823.67 808.609 827.359L726.074 970.313C723.944 974.002 720.009 976.274 715.749 976.274L550.68 976.274C546.421 976.274 542.485 974.001 540.355 970.313L457.821 827.359C455.691 823.67 455.691 819.125 457.821 815.437L540.355 672.483C542.485 668.794 546.421 666.522 550.68 666.522L715.749 666.522C720.009 666.522 723.944 668.794 726.074 672.483L808.609 815.437Z" fill="url(#paint4_linear_1208_90)"/>
<path d="M354.034 1427.41C348.189 1427.41 343.172 1425.62 338.981 1422.02C334.79 1418.43 331.569 1413.29 329.317 1406.59C327.093 1399.86 325.981 1391.81 325.981 1382.43C325.981 1373.07 327.107 1365.04 329.359 1358.31C331.612 1351.58 334.819 1346.42 338.981 1342.83C343.172 1339.24 348.189 1337.44 354.034 1337.44C359.878 1337.44 364.881 1339.24 369.043 1342.83C373.234 1346.42 376.456 1351.58 378.708 1358.31C380.96 1365.04 382.086 1373.07 382.086 1382.43C382.086 1391.81 380.96 1399.86 378.708 1406.59C376.484 1413.29 373.277 1418.43 369.086 1422.02C364.895 1425.62 359.878 1427.41 354.034 1427.41ZM354.034 1422.45C361.132 1422.45 366.706 1418.93 370.754 1411.89C374.802 1404.82 376.826 1395 376.826 1382.43C376.826 1374.04 375.9 1366.86 374.047 1360.87C372.222 1354.89 369.614 1350.31 366.221 1347.15C362.828 1343.95 358.766 1342.36 354.034 1342.36C346.935 1342.36 341.362 1345.89 337.313 1352.96C333.265 1360.03 331.241 1369.85 331.241 1382.43C331.241 1390.81 332.153 1397.99 333.978 1403.98C335.802 1409.94 338.411 1414.51 341.803 1417.71C345.224 1420.87 349.301 1422.45 354.034 1422.45ZM424.026 1338.64V1426.21H418.68V1344.28H418.167L398.496 1357.32V1351.59L417.996 1338.64H424.026ZM558.483 1382.43C558.483 1391.86 556.715 1399.94 553.18 1406.67C549.673 1413.37 544.884 1418.5 538.812 1422.07C532.768 1425.63 525.912 1427.41 518.243 1427.41C510.574 1427.41 503.703 1425.63 497.631 1422.07C491.587 1418.47 486.798 1413.33 483.263 1406.63C479.756 1399.9 478.003 1391.83 478.003 1382.43C478.003 1372.99 479.756 1364.92 483.263 1358.22C486.798 1351.49 491.587 1346.35 497.631 1342.78C503.703 1339.22 510.574 1337.44 518.243 1337.44C525.912 1337.44 532.768 1339.22 538.812 1342.78C544.884 1346.35 549.673 1351.49 553.18 1358.22C556.715 1364.92 558.483 1372.99 558.483 1382.43ZM542.532 1382.43C542.532 1375.78 541.491 1370.18 539.41 1365.62C537.358 1361.03 534.507 1357.57 530.858 1355.23C527.209 1352.86 523.004 1351.68 518.243 1351.68C513.482 1351.68 509.277 1352.86 505.628 1355.23C501.979 1357.57 499.114 1361.03 497.032 1365.62C494.98 1370.18 493.953 1375.78 493.953 1382.43C493.953 1389.07 494.98 1394.68 497.032 1399.27C499.114 1403.84 501.979 1407.3 505.628 1409.67C509.277 1412 513.482 1413.17 518.243 1413.17C523.004 1413.17 527.209 1412 530.858 1409.67C534.507 1407.3 537.358 1403.84 539.41 1399.27C541.491 1394.68 542.532 1389.07 542.532 1382.43ZM572.797 1426.21V1360.53H587.807V1371.48H588.491C589.689 1367.69 591.741 1364.76 594.649 1362.71C597.586 1360.63 600.935 1359.59 604.698 1359.59C605.554 1359.59 606.509 1359.63 607.564 1359.72C608.647 1359.78 609.545 1359.88 610.258 1360.02V1374.26C609.602 1374.03 608.561 1373.83 607.136 1373.66C605.739 1373.46 604.385 1373.36 603.073 1373.36C600.251 1373.36 597.714 1373.97 595.462 1375.2C593.238 1376.4 591.485 1378.06 590.202 1380.2C588.919 1382.34 588.278 1384.81 588.278 1387.6V1426.21H572.797ZM620.542 1426.21V1360.53H636.022V1426.21H620.542ZM628.325 1351.21C625.873 1351.21 623.764 1350.4 621.996 1348.77C620.228 1347.12 619.345 1345.14 619.345 1342.83C619.345 1340.49 620.228 1338.51 621.996 1336.88C623.764 1335.23 625.873 1334.4 628.325 1334.4C630.805 1334.4 632.915 1335.23 634.654 1336.88C636.421 1338.51 637.305 1340.49 637.305 1342.83C637.305 1345.14 636.421 1347.12 634.654 1348.77C632.915 1350.4 630.805 1351.21 628.325 1351.21ZM681.019 1427.5C674.434 1427.5 668.746 1426.13 663.957 1423.39C659.196 1420.63 655.533 1416.72 652.967 1411.68C650.401 1406.6 649.118 1400.63 649.118 1393.76C649.118 1387 650.401 1381.07 652.967 1375.97C655.561 1370.84 659.182 1366.85 663.829 1363.99C668.476 1361.12 673.935 1359.68 680.207 1359.68C684.255 1359.68 688.075 1360.33 691.667 1361.64C695.288 1362.93 698.481 1364.92 701.246 1367.63C704.04 1370.34 706.235 1373.79 707.832 1377.98C709.428 1382.14 710.226 1387.1 710.226 1392.86V1397.61H656.388V1387.17H695.388C695.359 1384.21 694.718 1381.57 693.463 1379.26C692.209 1376.92 690.456 1375.08 688.204 1373.74C685.98 1372.4 683.386 1371.74 680.421 1371.74C677.256 1371.74 674.477 1372.5 672.082 1374.04C669.687 1375.56 667.82 1377.55 666.48 1380.03C665.169 1382.48 664.499 1385.18 664.47 1388.11V1397.22C664.47 1401.04 665.169 1404.32 666.566 1407.06C667.962 1409.77 669.915 1411.85 672.424 1413.3C674.933 1414.73 677.869 1415.44 681.233 1415.44C683.485 1415.44 685.524 1415.13 687.348 1414.5C689.173 1413.84 690.755 1412.89 692.095 1411.63C693.435 1410.38 694.447 1408.82 695.131 1406.97L709.585 1408.6C708.673 1412.42 706.934 1415.75 704.368 1418.6C701.831 1421.43 698.581 1423.62 694.618 1425.19C690.655 1426.73 686.122 1427.5 681.019 1427.5ZM738.803 1387.73V1426.21H723.322V1360.53H738.118V1371.69H738.888C740.399 1368.01 742.808 1365.09 746.115 1362.93C749.451 1360.76 753.57 1359.68 758.473 1359.68C763.006 1359.68 766.955 1360.65 770.319 1362.58C773.711 1364.52 776.334 1367.33 778.187 1371.01C780.069 1374.69 780.995 1379.15 780.967 1384.39V1426.21H765.487V1386.79C765.487 1382.4 764.346 1378.96 762.066 1376.48C759.813 1374 756.692 1372.76 752.701 1372.76C749.992 1372.76 747.583 1373.36 745.474 1374.56C743.392 1375.73 741.753 1377.42 740.556 1379.65C739.387 1381.87 738.803 1384.56 738.803 1387.73ZM829.503 1360.53V1372.5H791.743V1360.53H829.503ZM801.065 1344.79H816.545V1406.46C816.545 1408.54 816.859 1410.14 817.486 1411.25C818.142 1412.33 818.997 1413.07 820.052 1413.47C821.107 1413.87 822.276 1414.07 823.558 1414.07C824.528 1414.07 825.412 1414 826.21 1413.86C827.037 1413.71 827.664 1413.59 828.091 1413.47L830.7 1425.57C829.873 1425.86 828.69 1426.17 827.151 1426.51C825.64 1426.86 823.787 1427.06 821.591 1427.11C817.714 1427.23 814.222 1426.64 811.115 1425.36C808.007 1424.05 805.541 1422.02 803.717 1419.29C801.921 1416.55 801.037 1413.13 801.065 1409.02V1344.79ZM861.35 1427.54C857.188 1427.54 853.439 1426.8 850.103 1425.32C846.796 1423.81 844.174 1421.58 842.235 1418.65C840.325 1415.71 839.37 1412.09 839.37 1407.78C839.37 1404.08 840.054 1401.01 841.423 1398.59C842.791 1396.17 844.658 1394.23 847.025 1392.77C849.391 1391.32 852.056 1390.22 855.021 1389.48C858.015 1388.71 861.108 1388.16 864.301 1387.81C868.149 1387.41 871.271 1387.06 873.666 1386.74C876.061 1386.4 877.8 1385.89 878.883 1385.21C879.995 1384.49 880.551 1383.4 880.551 1381.91V1381.66C880.551 1378.43 879.596 1375.94 877.685 1374.17C875.775 1372.4 873.024 1371.52 869.432 1371.52C865.641 1371.52 862.633 1372.35 860.409 1374C858.214 1375.65 856.732 1377.61 855.962 1379.86L841.508 1377.81C842.648 1373.82 844.53 1370.48 847.153 1367.8C849.776 1365.09 852.983 1363.07 856.774 1361.73C860.566 1360.36 864.757 1359.68 869.347 1359.68C872.511 1359.68 875.661 1360.05 878.797 1360.79C881.933 1361.53 884.798 1362.75 887.393 1364.47C889.987 1366.15 892.068 1368.44 893.636 1371.35C895.232 1374.26 896.031 1377.89 896.031 1382.25V1426.21H881.149V1417.19H880.636C879.695 1419.02 878.37 1420.73 876.659 1422.32C874.977 1423.89 872.853 1425.16 870.288 1426.13C867.75 1427.07 864.771 1427.54 861.35 1427.54ZM865.37 1416.17C868.477 1416.17 871.171 1415.55 873.452 1414.33C875.733 1413.07 877.486 1411.42 878.712 1409.37C879.966 1407.31 880.593 1405.08 880.593 1402.65V1394.91C880.109 1395.31 879.282 1395.68 878.113 1396.02C876.973 1396.37 875.69 1396.67 874.264 1396.92C872.839 1397.18 871.428 1397.41 870.031 1397.61C868.634 1397.81 867.422 1397.98 866.396 1398.12C864.087 1398.43 862.02 1398.95 860.196 1399.66C858.371 1400.37 856.931 1401.37 855.876 1402.65C854.822 1403.91 854.294 1405.53 854.294 1407.53C854.294 1410.38 855.335 1412.53 857.416 1413.98C859.497 1415.44 862.148 1416.17 865.37 1416.17ZM911.596 1426.21V1360.53H926.606V1371.48H927.29C928.488 1367.69 930.54 1364.76 933.448 1362.71C936.385 1360.63 939.734 1359.59 943.497 1359.59C944.353 1359.59 945.308 1359.63 946.363 1359.72C947.446 1359.78 948.344 1359.88 949.057 1360.02V1374.26C948.401 1374.03 947.36 1373.83 945.935 1373.66C944.538 1373.46 943.184 1373.36 941.872 1373.36C939.05 1373.36 936.513 1373.97 934.261 1375.2C932.037 1376.4 930.284 1378.06 929.001 1380.2C927.718 1382.34 927.077 1384.81 927.077 1387.6V1426.21H911.596Z" fill="white"/>
<rect x="1407.55" y="603.687" width="524.584" height="524.584" rx="11.9224" fill="url(#paint5_linear_1208_90)"/>
<path d="M1496.97 1038.86L2021.55 514.271" stroke="url(#paint6_linear_1208_90)" stroke-width="5.96118"/>
<path d="M1514.85 1038.86L2021.55 532.155" stroke="url(#paint7_linear_1208_90)" stroke-width="5.96118"/>
<path d="M1532.74 1038.86L2021.55 550.043" stroke="url(#paint8_linear_1208_90)" stroke-width="5.96118"/>
<path d="M1550.62 1038.86L2021.56 567.923" stroke="url(#paint9_linear_1208_90)" stroke-width="5.96118"/>
<path d="M1568.51 1038.86L2021.56 585.808" stroke="url(#paint10_linear_1208_90)" stroke-width="5.96118"/>
<path d="M1586.39 1038.85L2021.56 603.687" stroke="url(#paint11_linear_1208_90)" stroke-width="5.96118"/>
<path d="M1604.27 1038.86L2021.55 621.576" stroke="url(#paint12_linear_1208_90)" stroke-width="5.96118"/>
<path d="M1622.16 1038.86L2021.56 639.459" stroke="url(#paint13_linear_1208_90)" stroke-width="5.96118"/>
<path d="M1640.04 1038.86L2021.55 657.341" stroke="url(#paint14_linear_1208_90)" stroke-width="5.96118"/>
<path d="M1657.92 1038.86L2021.55 675.224" stroke="url(#paint15_linear_1208_90)" stroke-width="5.96118"/>
<path d="M1675.81 1038.86L2021.56 693.109" stroke="url(#paint16_linear_1208_90)" stroke-width="5.96118"/>
<path d="M1693.69 1038.86L2021.55 710.993" stroke="url(#paint17_linear_1208_90)" stroke-width="5.96118"/>
<path d="M1711.57 1038.86L2021.55 728.874" stroke="url(#paint18_linear_1208_90)" stroke-width="5.96118"/>
<path d="M1729.46 1038.86L2021.55 746.757" stroke="url(#paint19_linear_1208_90)" stroke-width="5.96118"/>
<path d="M1747.34 1038.86L2021.55 764.646" stroke="url(#paint20_linear_1208_90)" stroke-width="5.96118"/>
<path d="M1765.22 1038.86L2021.56 782.526" stroke="url(#paint21_linear_1208_90)" stroke-width="5.96118"/>
<path d="M1783.11 1038.86L2021.56 800.411" stroke="url(#paint22_linear_1208_90)" stroke-width="5.96118"/>
<path d="M1800.99 1038.85L2021.56 818.291" stroke="url(#paint23_linear_1208_90)" stroke-width="5.96118"/>
<path d="M1818.87 1038.86L2021.56 836.179" stroke="url(#paint24_linear_1208_90)" stroke-width="5.96118"/>
<path d="M1836.76 1038.86L2021.56 854.064" stroke="url(#paint25_linear_1208_90)" stroke-width="5.96118"/>
<path d="M1854.64 1038.86L2021.55 871.945" stroke="url(#paint26_linear_1208_90)" stroke-width="5.96118"/>
<path d="M1872.53 1038.86L2021.55 889.828" stroke="url(#paint27_linear_1208_90)" stroke-width="5.96118"/>
<path d="M1890.41 1038.86L2021.56 907.712" stroke="url(#paint28_linear_1208_90)" stroke-width="5.96118"/>
<path d="M1908.29 1038.86L2021.56 925.596" stroke="url(#paint29_linear_1208_90)" stroke-width="5.96118"/>
<path d="M1926.18 1038.86L2021.55 943.478" stroke="url(#paint30_linear_1208_90)" stroke-width="5.96118"/>
<path d="M1944.06 1038.86L2021.56 961.361" stroke="url(#paint31_linear_1208_90)" stroke-width="5.96118"/>
<path d="M1961.94 1038.86L2021.55 979.249" stroke="url(#paint32_linear_1208_90)" stroke-width="5.96118"/>
<path d="M1979.83 1038.86L2021.55 997.13" stroke="url(#paint33_linear_1208_90)" stroke-width="5.96118"/>
<path d="M1997.71 1038.86L2021.55 1015.02" stroke="url(#paint34_linear_1208_90)" stroke-width="5.96118"/>
<path d="M2015.59 1038.85L2021.55 1032.89" stroke="url(#paint35_linear_1208_90)" stroke-width="5.96118"/>
<path d="M1496.97 1020.97L2003.67 514.272" stroke="url(#paint36_linear_1208_90)" stroke-width="5.96118"/>
<path d="M1496.97 1003.09L1985.79 514.271" stroke="url(#paint37_linear_1208_90)" stroke-width="5.96118"/>
<path d="M1496.97 985.208L1967.9 514.274" stroke="url(#paint38_linear_1208_90)" stroke-width="5.96118"/>
<path d="M1496.97 967.324L1950.02 514.274" stroke="url(#paint39_linear_1208_90)" stroke-width="5.96118"/>
<path d="M1496.97 949.439L1932.14 514.273" stroke="url(#paint40_linear_1208_90)" stroke-width="5.96118"/>
<path d="M1496.97 931.555L1914.25 514.272" stroke="url(#paint41_linear_1208_90)" stroke-width="5.96118"/>
<path d="M1496.97 913.67L1896.37 514.271" stroke="url(#paint42_linear_1208_90)" stroke-width="5.96118"/>
<path d="M1496.97 895.791L1878.49 514.275" stroke="url(#paint43_linear_1208_90)" stroke-width="5.96118"/>
<path d="M1496.97 877.903L1860.6 514.27" stroke="url(#paint44_linear_1208_90)" stroke-width="5.96118"/>
<path d="M1496.97 860.022L1842.72 514.274" stroke="url(#paint45_linear_1208_90)" stroke-width="5.96118"/>
<path d="M1496.97 842.137L1824.84 514.272" stroke="url(#paint46_linear_1208_90)" stroke-width="5.96118"/>
<path d="M1496.97 824.257L1806.95 514.276" stroke="url(#paint47_linear_1208_90)" stroke-width="5.96118"/>
<path d="M1496.97 806.369L1789.07 514.271" stroke="url(#paint48_linear_1208_90)" stroke-width="5.96118"/>
<path d="M1496.97 788.485L1771.19 514.27" stroke="url(#paint49_linear_1208_90)" stroke-width="5.96118"/>
<path d="M1496.97 770.604L1753.3 514.273" stroke="url(#paint50_linear_1208_90)" stroke-width="5.96118"/>
<path d="M1496.97 752.721L1735.42 514.273" stroke="url(#paint51_linear_1208_90)" stroke-width="5.96118"/>
<path d="M1496.97 734.836L1717.53 514.272" stroke="url(#paint52_linear_1208_90)" stroke-width="5.96118"/>
<path d="M1496.97 716.952L1699.65 514.272" stroke="url(#paint53_linear_1208_90)" stroke-width="5.96118"/>
<path d="M1496.97 699.066L1681.77 514.27" stroke="url(#paint54_linear_1208_90)" stroke-width="5.96118"/>
<path d="M1496.97 681.188L1663.88 514.274" stroke="url(#paint55_linear_1208_90)" stroke-width="5.96118"/>
<path d="M1496.97 663.299L1646 514.269" stroke="url(#paint56_linear_1208_90)" stroke-width="5.96118"/>
<path d="M1496.97 645.419L1628.12 514.273" stroke="url(#paint57_linear_1208_90)" stroke-width="5.96118"/>
<path d="M1496.97 627.533L1610.23 514.271" stroke="url(#paint58_linear_1208_90)" stroke-width="5.96118"/>
<path d="M1496.97 609.655L1592.35 514.276" stroke="url(#paint59_linear_1208_90)" stroke-width="5.96118"/>
<path d="M1496.97 591.771L1574.47 514.276" stroke="url(#paint60_linear_1208_90)" stroke-width="5.96118"/>
<path d="M1496.97 573.881L1556.58 514.27" stroke="url(#paint61_linear_1208_90)" stroke-width="5.96118"/>
<path d="M1496.97 556.006L1538.7 514.277" stroke="url(#paint62_linear_1208_90)" stroke-width="5.96118"/>
<path d="M1496.97 538.117L1520.82 514.272" stroke="url(#paint63_linear_1208_90)" stroke-width="5.96118"/>
<path d="M1496.97 520.238L1502.93 514.277" stroke="url(#paint64_linear_1208_90)" stroke-width="5.96118"/>
<path d="M1435.5 1427.41C1429.66 1427.41 1424.64 1425.62 1420.45 1422.02C1416.26 1418.43 1413.04 1413.29 1410.79 1406.59C1408.56 1399.86 1407.45 1391.8 1407.45 1382.43C1407.45 1373.07 1408.58 1365.04 1410.83 1358.31C1413.08 1351.58 1416.29 1346.42 1420.45 1342.83C1424.64 1339.24 1429.66 1337.44 1435.5 1337.44C1441.35 1337.44 1446.35 1339.24 1450.51 1342.83C1454.7 1346.42 1457.92 1351.58 1460.18 1358.31C1462.43 1365.04 1463.55 1373.07 1463.55 1382.43C1463.55 1391.8 1462.43 1399.86 1460.18 1406.59C1457.95 1413.29 1454.75 1418.43 1450.55 1422.02C1446.36 1425.62 1441.35 1427.41 1435.5 1427.41ZM1435.5 1422.45C1442.6 1422.45 1448.17 1418.93 1452.22 1411.89C1456.27 1404.82 1458.29 1395 1458.29 1382.43C1458.29 1374.04 1457.37 1366.86 1455.52 1360.87C1453.69 1354.89 1451.08 1350.31 1447.69 1347.15C1444.3 1343.95 1440.23 1342.36 1435.5 1342.36C1428.4 1342.36 1422.83 1345.89 1418.78 1352.96C1414.73 1360.03 1412.71 1369.85 1412.71 1382.43C1412.71 1390.81 1413.62 1397.99 1415.45 1403.98C1417.27 1409.94 1419.88 1414.51 1423.27 1417.7C1426.69 1420.87 1430.77 1422.45 1435.5 1422.45ZM1482.23 1426.21V1422.15L1510.58 1389.48C1514.63 1384.81 1517.84 1380.84 1520.2 1377.59C1522.57 1374.34 1524.27 1371.41 1525.29 1368.78C1526.32 1366.16 1526.83 1363.42 1526.83 1360.57C1526.83 1357.01 1525.99 1353.86 1524.31 1351.12C1522.66 1348.36 1520.39 1346.21 1517.51 1344.67C1514.66 1343.13 1511.41 1342.36 1507.76 1342.36C1503.94 1342.36 1500.59 1343.2 1497.71 1344.88C1494.83 1346.56 1492.58 1348.84 1490.95 1351.72C1489.36 1354.6 1488.56 1357.84 1488.56 1361.43H1483.39C1483.39 1356.9 1484.44 1352.82 1486.55 1349.2C1488.66 1345.58 1491.55 1342.71 1495.23 1340.6C1498.94 1338.49 1503.16 1337.44 1507.89 1337.44C1512.54 1337.44 1516.67 1338.45 1520.29 1340.48C1523.91 1342.5 1526.76 1345.26 1528.84 1348.77C1530.92 1352.25 1531.96 1356.18 1531.96 1360.57C1531.96 1363.8 1531.41 1366.9 1530.3 1369.9C1529.21 1372.86 1527.35 1376.18 1524.69 1379.86C1522.04 1383.51 1518.38 1388.01 1513.7 1393.37L1489.93 1420.78V1421.25H1535.9V1426.21H1482.23ZM1584.39 1426.21V1338.64H1641.35V1351.94H1600.26V1375.71H1638.4V1389.01H1600.26V1412.92H1641.69V1426.21H1584.39ZM1672.33 1387.73V1426.21H1656.85V1360.53H1671.65V1371.69H1672.42C1673.93 1368.01 1676.34 1365.09 1679.65 1362.93C1682.98 1360.76 1687.1 1359.68 1692 1359.68C1696.54 1359.68 1700.49 1360.64 1703.85 1362.58C1707.24 1364.52 1709.86 1367.33 1711.72 1371.01C1713.6 1374.69 1714.53 1379.15 1714.5 1384.39V1426.21H1699.02V1386.79C1699.02 1382.4 1697.88 1378.96 1695.6 1376.48C1693.34 1374 1690.22 1372.76 1686.23 1372.76C1683.52 1372.76 1681.11 1373.36 1679 1374.56C1676.92 1375.73 1675.28 1377.42 1674.09 1379.65C1672.92 1381.87 1672.33 1384.56 1672.33 1387.73ZM1763.5 1360.53V1372.5H1724.67V1360.53H1763.5ZM1734.38 1426.21V1354.33C1734.38 1349.91 1735.29 1346.23 1737.12 1343.3C1738.97 1340.36 1741.45 1338.17 1744.56 1336.71C1747.67 1335.26 1751.12 1334.53 1754.91 1334.53C1757.59 1334.53 1759.97 1334.74 1762.05 1335.17C1764.13 1335.6 1765.67 1335.99 1766.67 1336.33L1763.59 1348.3C1762.93 1348.1 1762.11 1347.9 1761.11 1347.7C1760.11 1347.47 1759 1347.36 1757.77 1347.36C1754.89 1347.36 1752.86 1348.06 1751.66 1349.46C1750.49 1350.82 1749.9 1352.79 1749.9 1355.36V1426.21H1734.38ZM1801.81 1427.5C1795.39 1427.5 1789.83 1426.09 1785.13 1423.26C1780.43 1420.44 1776.78 1416.49 1774.18 1411.42C1771.62 1406.34 1770.33 1400.41 1770.33 1393.63C1770.33 1386.84 1771.62 1380.9 1774.18 1375.8C1776.78 1370.69 1780.43 1366.73 1785.13 1363.91C1789.83 1361.09 1795.39 1359.68 1801.81 1359.68C1808.22 1359.68 1813.78 1361.09 1818.49 1363.91C1823.19 1366.73 1826.82 1370.69 1829.39 1375.8C1831.98 1380.9 1833.28 1386.84 1833.28 1393.63C1833.28 1400.41 1831.98 1406.34 1829.39 1411.42C1826.82 1416.49 1823.19 1420.44 1818.49 1423.26C1813.78 1426.09 1808.22 1427.5 1801.81 1427.5ZM1801.89 1415.1C1805.37 1415.1 1808.28 1414.14 1810.62 1412.23C1812.96 1410.29 1814.69 1407.7 1815.83 1404.45C1817 1401.2 1817.59 1397.58 1817.59 1393.59C1817.59 1389.57 1817 1385.93 1815.83 1382.68C1814.69 1379.4 1812.96 1376.8 1810.62 1374.86C1808.28 1372.92 1805.37 1371.95 1801.89 1371.95C1798.33 1371.95 1795.37 1372.92 1793 1374.86C1790.66 1376.8 1788.91 1379.4 1787.74 1382.68C1786.6 1385.93 1786.03 1389.57 1786.03 1393.59C1786.03 1397.58 1786.6 1401.2 1787.74 1404.45C1788.91 1407.7 1790.66 1410.29 1793 1412.23C1795.37 1414.14 1798.33 1415.1 1801.89 1415.1ZM1875.07 1427.5C1868.51 1427.5 1862.88 1426.06 1858.18 1423.18C1853.5 1420.3 1849.9 1416.32 1847.36 1411.25C1844.85 1406.14 1843.6 1400.27 1843.6 1393.63C1843.6 1386.96 1844.88 1381.07 1847.45 1375.97C1850.01 1370.84 1853.63 1366.85 1858.31 1363.99C1863.01 1361.12 1868.57 1359.68 1874.99 1359.68C1880.32 1359.68 1885.04 1360.66 1889.14 1362.63C1893.27 1364.56 1896.57 1367.32 1899.02 1370.88C1901.47 1374.41 1902.87 1378.55 1903.21 1383.28H1888.41C1887.81 1380.12 1886.39 1377.48 1884.14 1375.37C1881.91 1373.23 1878.93 1372.16 1875.2 1372.16C1872.04 1372.16 1869.26 1373.02 1866.86 1374.73C1864.47 1376.41 1862.6 1378.83 1861.26 1382C1859.95 1385.16 1859.29 1388.95 1859.29 1393.37C1859.29 1397.85 1859.95 1401.7 1861.26 1404.92C1862.57 1408.11 1864.41 1410.58 1866.78 1412.32C1869.17 1414.03 1871.98 1414.88 1875.2 1414.88C1877.48 1414.88 1879.52 1414.45 1881.32 1413.6C1883.14 1412.72 1884.66 1411.45 1885.89 1409.79C1887.12 1408.14 1887.96 1406.13 1888.41 1403.76H1903.21C1902.84 1408.41 1901.47 1412.53 1899.1 1416.12C1896.74 1419.69 1893.52 1422.48 1889.44 1424.5C1885.36 1426.5 1880.57 1427.5 1875.07 1427.5ZM1934.82 1427.54C1930.66 1427.54 1926.91 1426.8 1923.58 1425.32C1920.27 1423.81 1917.65 1421.58 1915.71 1418.65C1913.8 1415.71 1912.84 1412.09 1912.84 1407.78C1912.84 1404.08 1913.53 1401.01 1914.89 1398.59C1916.26 1396.17 1918.13 1394.23 1920.5 1392.77C1922.86 1391.32 1925.53 1390.22 1928.49 1389.48C1931.49 1388.71 1934.58 1388.16 1937.77 1387.81C1941.62 1387.41 1944.74 1387.06 1947.14 1386.74C1949.53 1386.4 1951.27 1385.89 1952.35 1385.21C1953.47 1384.49 1954.02 1383.39 1954.02 1381.91V1381.66C1954.02 1378.43 1953.07 1375.94 1951.16 1374.17C1949.25 1372.4 1946.5 1371.52 1942.9 1371.52C1939.11 1371.52 1936.1 1372.35 1933.88 1374C1931.69 1375.65 1930.2 1377.61 1929.43 1379.86L1914.98 1377.81C1916.12 1373.82 1918 1370.48 1920.62 1367.8C1923.25 1365.09 1926.45 1363.07 1930.25 1361.73C1934.04 1360.36 1938.23 1359.68 1942.82 1359.68C1945.98 1359.68 1949.13 1360.05 1952.27 1360.79C1955.41 1361.53 1958.27 1362.75 1960.86 1364.47C1963.46 1366.15 1965.54 1368.44 1967.11 1371.35C1968.7 1374.26 1969.5 1377.89 1969.5 1382.25V1426.21H1954.62V1417.19H1954.11C1953.17 1419.02 1951.84 1420.73 1950.13 1422.32C1948.45 1423.89 1946.33 1425.16 1943.76 1426.13C1941.22 1427.07 1938.24 1427.54 1934.82 1427.54ZM1938.84 1416.17C1941.95 1416.17 1944.64 1415.55 1946.92 1414.33C1949.2 1413.07 1950.96 1411.42 1952.18 1409.37C1953.44 1407.31 1954.07 1405.08 1954.07 1402.65V1394.91C1953.58 1395.31 1952.75 1395.68 1951.59 1396.02C1950.44 1396.37 1949.16 1396.67 1947.74 1396.92C1946.31 1397.18 1944.9 1397.41 1943.5 1397.61C1942.11 1397.81 1940.89 1397.98 1939.87 1398.12C1937.56 1398.43 1935.49 1398.95 1933.67 1399.66C1931.84 1400.37 1930.4 1401.37 1929.35 1402.65C1928.29 1403.91 1927.77 1405.53 1927.77 1407.53C1927.77 1410.38 1928.81 1412.53 1930.89 1413.98C1932.97 1415.44 1935.62 1416.17 1938.84 1416.17ZM1985.07 1426.21V1360.53H2000.08V1371.48H2000.76C2001.96 1367.69 2004.01 1364.76 2006.92 1362.71C2009.86 1360.63 2013.21 1359.59 2016.97 1359.59C2017.82 1359.59 2018.78 1359.63 2019.83 1359.72C2020.92 1359.78 2021.82 1359.88 2022.53 1360.02V1374.26C2021.87 1374.03 2020.83 1373.83 2019.41 1373.66C2018.01 1373.46 2016.66 1373.36 2015.34 1373.36C2012.52 1373.36 2009.98 1373.97 2007.73 1375.2C2005.51 1376.4 2003.76 1378.06 2002.47 1380.2C2001.19 1382.34 2000.55 1384.81 2000.55 1387.6V1426.21H1985.07Z" fill="white"/>
<path d="M3788.98 613.58C3854.8 613.58 3913.51 644.517 3951.76 692.84C3971.56 732.721 3982.72 777.656 3982.72 825.202C3982.72 989.816 3849.27 1123.26 3684.66 1123.26C3577.12 1123.26 3482.89 1066.31 3430.47 980.921C3469.15 1019.19 3522.01 1042.79 3580.34 1042.79C3691.64 1042.79 3783.09 956.888 3793.87 846.975C3795.26 839.933 3796.01 832.654 3796.01 825.202C3796.01 763.704 3746.15 713.849 3684.66 713.849C3642.67 713.849 3606.12 737.084 3587.15 771.395C3610.62 680.558 3692.11 613.58 3788.98 613.58Z" fill="url(#paint65_linear_1208_90)"/>
<path d="M3684.66 527.142C3792.19 527.142 3886.41 584.096 3938.83 669.477C3900.16 631.213 3847.3 607.618 3788.98 607.618C3677.67 607.618 3586.21 693.513 3575.44 803.423C3574.04 810.467 3573.3 817.748 3573.3 825.202C3573.3 886.7 3623.16 936.555 3684.66 936.555C3726.64 936.555 3763.19 913.315 3782.16 879.004C3758.69 969.842 3677.21 1036.82 3580.34 1036.82C3514.51 1036.82 3455.79 1005.88 3417.55 957.558C3397.75 917.679 3386.6 872.745 3386.6 825.202C3386.6 660.588 3520.04 527.142 3684.66 527.142Z" fill="url(#paint66_linear_1208_90)"/>
<path d="M3393.08 1427.41C3387.23 1427.41 3382.22 1425.62 3378.03 1422.02C3373.83 1418.43 3370.61 1413.29 3368.36 1406.59C3366.14 1399.86 3365.03 1391.81 3365.03 1382.43C3365.03 1373.07 3366.15 1365.04 3368.4 1358.31C3370.66 1351.58 3373.86 1346.42 3378.03 1342.83C3382.22 1339.24 3387.23 1337.44 3393.08 1337.44C3398.92 1337.44 3403.93 1339.24 3408.09 1342.83C3412.28 1346.42 3415.5 1351.58 3417.75 1358.31C3420 1365.04 3421.13 1373.07 3421.13 1382.43C3421.13 1391.81 3420 1399.86 3417.75 1406.59C3415.53 1413.29 3412.32 1418.43 3408.13 1422.02C3403.94 1425.62 3398.92 1427.41 3393.08 1427.41ZM3393.08 1422.45C3400.18 1422.45 3405.75 1418.93 3409.8 1411.89C3413.85 1404.82 3415.87 1395 3415.87 1382.43C3415.87 1374.04 3414.94 1366.86 3413.09 1360.87C3411.27 1354.89 3408.66 1350.31 3405.27 1347.15C3401.87 1343.95 3397.81 1342.36 3393.08 1342.36C3385.98 1342.36 3380.41 1345.89 3376.36 1352.96C3372.31 1360.03 3370.29 1369.85 3370.29 1382.43C3370.29 1390.81 3371.2 1397.99 3373.02 1403.98C3374.85 1409.94 3377.46 1414.51 3380.85 1417.71C3384.27 1420.87 3388.35 1422.45 3393.08 1422.45ZM3437.63 1406.54V1402.27L3477.27 1338.64H3480.52V1346.89H3477.74L3444.08 1401.11V1401.58H3494.67V1406.54H3437.63ZM3478.17 1426.21V1405.09V1403.17V1338.64H3483.38V1426.21H3478.17ZM3541.38 1426.21V1338.64H3598.34V1351.94H3557.24V1375.71H3595.39V1389.01H3557.24V1412.92H3598.68V1426.21H3541.38ZM3629.32 1387.73V1426.21H3613.84V1360.53H3628.64V1371.69H3629.41C3630.92 1368.01 3633.33 1365.09 3636.63 1362.93C3639.97 1360.76 3644.09 1359.68 3648.99 1359.68C3653.52 1359.68 3657.47 1360.65 3660.84 1362.58C3664.23 1364.52 3666.85 1367.33 3668.71 1371.01C3670.59 1374.69 3671.51 1379.15 3671.49 1384.39V1426.21H3656.01V1386.79C3656.01 1382.4 3654.86 1378.96 3652.58 1376.48C3650.33 1374 3647.21 1372.76 3643.22 1372.76C3640.51 1372.76 3638.1 1373.36 3635.99 1374.56C3633.91 1375.73 3632.27 1377.42 3631.07 1379.65C3629.91 1381.87 3629.32 1384.56 3629.32 1387.73ZM3720.02 1360.53V1372.5H3682.26V1360.53H3720.02ZM3691.58 1344.79H3707.06V1406.46C3707.06 1408.54 3707.38 1410.14 3708 1411.25C3708.66 1412.33 3709.52 1413.07 3710.57 1413.47C3711.63 1413.87 3712.79 1414.07 3714.08 1414.07C3715.05 1414.07 3715.93 1414 3716.73 1413.86C3717.55 1413.71 3718.18 1413.59 3718.61 1413.47L3721.22 1425.57C3720.39 1425.86 3719.21 1426.17 3717.67 1426.51C3716.16 1426.86 3714.3 1427.06 3712.11 1427.11C3708.23 1427.23 3704.74 1426.64 3701.63 1425.36C3698.53 1424.05 3696.06 1422.02 3694.23 1419.29C3692.44 1416.55 3691.56 1413.13 3691.58 1409.02V1344.79ZM3761.34 1427.5C3754.76 1427.5 3749.07 1426.13 3744.28 1423.39C3739.52 1420.63 3735.85 1416.72 3733.29 1411.68C3730.72 1406.6 3729.44 1400.63 3729.44 1393.76C3729.44 1387 3730.72 1381.07 3733.29 1375.97C3735.88 1370.84 3739.5 1366.85 3744.15 1363.99C3748.8 1361.12 3754.26 1359.68 3760.53 1359.68C3764.58 1359.68 3768.4 1360.33 3771.99 1361.64C3775.61 1362.93 3778.8 1364.92 3781.57 1367.63C3784.36 1370.34 3786.56 1373.79 3788.15 1377.98C3789.75 1382.14 3790.55 1387.1 3790.55 1392.86V1397.61H3736.71V1387.17H3775.71C3775.68 1384.21 3775.04 1381.57 3773.78 1379.26C3772.53 1376.92 3770.78 1375.08 3768.52 1373.74C3766.3 1372.4 3763.71 1371.74 3760.74 1371.74C3757.58 1371.74 3754.8 1372.5 3752.4 1374.04C3750.01 1375.56 3748.14 1377.55 3746.8 1380.03C3745.49 1382.48 3744.82 1385.18 3744.79 1388.11V1397.22C3744.79 1401.04 3745.49 1404.32 3746.89 1407.06C3748.28 1409.77 3750.24 1411.85 3752.75 1413.3C3755.25 1414.73 3758.19 1415.44 3761.55 1415.44C3763.81 1415.44 3765.84 1415.13 3767.67 1414.5C3769.49 1413.84 3771.08 1412.89 3772.42 1411.63C3773.76 1410.38 3774.77 1408.82 3775.45 1406.97L3789.91 1408.6C3788.99 1412.42 3787.25 1415.75 3784.69 1418.6C3782.15 1421.43 3778.9 1423.62 3774.94 1425.19C3770.98 1426.73 3766.44 1427.5 3761.34 1427.5ZM3819.12 1387.73V1426.21H3803.64V1360.53H3818.44V1371.69H3819.21C3820.72 1368.01 3823.13 1365.09 3826.44 1362.93C3829.77 1360.76 3833.89 1359.68 3838.79 1359.68C3843.33 1359.68 3847.28 1360.65 3850.64 1362.58C3854.03 1364.52 3856.66 1367.33 3858.51 1371.01C3860.39 1374.69 3861.32 1379.15 3861.29 1384.39V1426.21H3845.81V1386.79C3845.81 1382.4 3844.67 1378.96 3842.39 1376.48C3840.13 1374 3837.01 1372.76 3833.02 1372.76C3830.31 1372.76 3827.9 1373.36 3825.79 1374.56C3823.71 1375.73 3822.07 1377.42 3820.88 1379.65C3819.71 1381.87 3819.12 1384.56 3819.12 1387.73ZM3901.4 1427.37C3896.24 1427.37 3891.62 1426.04 3887.54 1423.39C3883.47 1420.74 3880.25 1416.89 3877.88 1411.85C3875.51 1406.8 3874.33 1400.67 3874.33 1393.46C3874.33 1386.16 3875.53 1380 3877.92 1374.99C3880.35 1369.94 3883.61 1366.13 3887.72 1363.57C3891.82 1360.97 3896.4 1359.68 3901.44 1359.68C3905.29 1359.68 3908.46 1360.33 3910.94 1361.64C3913.42 1362.93 3915.38 1364.48 3916.84 1366.3C3918.29 1368.1 3919.42 1369.8 3920.21 1371.39H3920.86V1338.64H3936.38V1426.21H3921.16V1415.87H3920.21C3919.42 1417.46 3918.26 1419.16 3916.75 1420.96C3915.24 1422.72 3913.24 1424.23 3910.76 1425.49C3908.28 1426.74 3905.16 1427.37 3901.4 1427.37ZM3905.72 1414.67C3909 1414.67 3911.79 1413.79 3914.1 1412.02C3916.41 1410.22 3918.16 1407.73 3919.36 1404.53C3920.56 1401.34 3921.16 1397.62 3921.16 1393.37C3921.16 1389.13 3920.56 1385.43 3919.36 1382.3C3918.19 1379.16 3916.45 1376.72 3914.14 1374.99C3911.86 1373.25 3909.05 1372.38 3905.72 1372.38C3902.27 1372.38 3899.39 1373.27 3897.08 1375.07C3894.77 1376.87 3893.03 1379.35 3891.86 1382.51C3890.69 1385.68 3890.11 1389.3 3890.11 1393.37C3890.11 1397.48 3890.69 1401.14 3891.86 1404.36C3893.06 1407.56 3894.81 1410.08 3897.12 1411.93C3899.46 1413.76 3902.33 1414.67 3905.72 1414.67ZM3981.95 1427.5C3975.37 1427.5 3969.68 1426.13 3964.89 1423.39C3960.13 1420.63 3956.47 1416.72 3953.9 1411.68C3951.34 1406.6 3950.05 1400.63 3950.05 1393.76C3950.05 1387 3951.34 1381.07 3953.9 1375.97C3956.5 1370.84 3960.12 1366.85 3964.76 1363.99C3969.41 1361.12 3974.87 1359.68 3981.14 1359.68C3985.19 1359.68 3989.01 1360.33 3992.6 1361.64C3996.22 1362.93 3999.42 1364.92 4002.18 1367.63C4004.97 1370.34 4007.17 1373.79 4008.77 1377.98C4010.36 1382.14 4011.16 1387.1 4011.16 1392.86V1397.61H3957.32V1387.17H3996.32C3996.29 1384.21 3995.65 1381.57 3994.4 1379.26C3993.14 1376.92 3991.39 1375.08 3989.14 1373.74C3986.91 1372.4 3984.32 1371.74 3981.36 1371.74C3978.19 1371.74 3975.41 1372.5 3973.02 1374.04C3970.62 1375.56 3968.75 1377.55 3967.41 1380.03C3966.1 1382.48 3965.43 1385.18 3965.4 1388.11V1397.22C3965.4 1401.04 3966.1 1404.32 3967.5 1407.06C3968.9 1409.77 3970.85 1411.85 3973.36 1413.3C3975.87 1414.73 3978.8 1415.44 3982.17 1415.44C3984.42 1415.44 3986.46 1415.13 3988.28 1414.5C3990.11 1413.84 3991.69 1412.89 3993.03 1411.63C3994.37 1410.38 3995.38 1408.82 3996.07 1406.97L4010.52 1408.6C4009.61 1412.42 4007.87 1415.75 4005.3 1418.6C4002.77 1421.43 3999.52 1423.62 3995.55 1425.19C3991.59 1426.73 3987.06 1427.5 3981.95 1427.5ZM4024.26 1426.21V1360.53H4039.27V1371.48H4039.95C4041.15 1367.69 4043.2 1364.76 4046.11 1362.71C4049.05 1360.63 4052.39 1359.59 4056.16 1359.59C4057.01 1359.59 4057.97 1359.63 4059.02 1359.72C4060.11 1359.78 4061 1359.88 4061.72 1360.02V1374.26C4061.06 1374.03 4060.02 1373.83 4058.6 1373.66C4057.2 1373.46 4055.84 1373.36 4054.53 1373.36C4051.71 1373.36 4049.17 1373.97 4046.92 1375.2C4044.7 1376.4 4042.94 1378.06 4041.66 1380.2C4040.38 1382.34 4039.74 1384.81 4039.74 1387.6V1426.21H4024.26Z" fill="white"/>
<path d="M4752.27 705.779C4760.16 700.622 4770.35 700.598 4778.26 705.719L5052.49 883.132C5066.94 892.479 5067.03 913.583 5052.67 923.057L4779.97 1102.94C4772.01 1108.19 4761.68 1108.19 4753.71 1102.94L4480.86 922.956C4466.54 913.508 4466.59 892.478 4480.95 883.091L4752.27 705.779Z" fill="url(#paint67_linear_1208_90)"/>
<path d="M4752.27 598.825C4760.16 593.667 4770.35 593.644 4778.26 598.765L5052.49 776.178C5066.94 785.524 5067.03 806.628 5052.67 816.103L4779.97 995.984C4772.01 1001.24 4761.68 1001.24 4753.71 995.984L4480.86 816.002C4466.54 806.553 4466.59 785.524 4480.95 776.137L4752.27 598.825Z" fill="url(#paint68_linear_1208_90)"/>
<path d="M4752.27 491.872C4760.16 486.715 4770.35 486.691 4778.26 491.812L5052.49 669.225C5066.94 678.571 5067.03 699.675 5052.67 709.15L4779.97 889.031C4772.01 894.285 4761.68 894.285 4753.71 889.031L4480.86 709.049C4466.54 699.6 4466.59 678.571 4480.95 669.184L4752.27 491.872Z" fill="url(#paint69_linear_1208_90)"/>
<path d="M4435.51 1427.5C4429.67 1427.5 4424.65 1425.7 4420.46 1422.11C4416.27 1418.52 4413.05 1413.37 4410.8 1406.67C4408.57 1399.95 4407.46 1391.89 4407.46 1382.51C4407.46 1373.16 4408.59 1365.12 4410.84 1358.39C4413.09 1351.67 4416.3 1346.51 4420.46 1342.91C4424.65 1339.32 4429.67 1337.53 4435.51 1337.53C4441.36 1337.53 4446.36 1339.32 4450.52 1342.91C4454.71 1346.51 4457.94 1351.67 4460.19 1358.39C4462.44 1365.12 4463.57 1373.16 4463.57 1382.51C4463.57 1391.89 4462.44 1399.95 4460.19 1406.67C4457.96 1413.37 4454.76 1418.52 4450.57 1422.11C4446.38 1425.7 4441.36 1427.5 4435.51 1427.5ZM4435.51 1422.54C4442.61 1422.54 4448.19 1419.02 4452.23 1411.98C4456.28 1404.91 4458.31 1395.09 4458.31 1382.51C4458.31 1374.13 4457.38 1366.95 4455.53 1360.96C4453.7 1354.97 4451.09 1350.4 4447.7 1347.23C4444.31 1344.04 4440.25 1342.44 4435.51 1342.44C4428.42 1342.44 4422.84 1345.98 4418.79 1353.05C4414.75 1360.12 4412.72 1369.94 4412.72 1382.51C4412.72 1390.89 4413.63 1398.08 4415.46 1404.07C4417.28 1410.02 4419.89 1414.6 4423.28 1417.79C4426.71 1420.96 4430.78 1422.54 4435.51 1422.54ZM4506.06 1427.5C4501.39 1427.5 4497.21 1426.52 4493.53 1424.55C4489.88 1422.55 4486.99 1419.82 4484.85 1416.34C4482.74 1412.86 4481.66 1408.88 4481.6 1404.41H4486.86C4486.98 1409.71 4488.81 1414.06 4492.38 1417.45C4495.94 1420.84 4500.5 1422.54 4506.06 1422.54C4510.34 1422.54 4514.1 1421.51 4517.35 1419.46C4520.63 1417.38 4523.2 1414.56 4525.05 1410.99C4526.9 1407.43 4527.81 1403.41 4527.79 1398.93C4527.79 1394.2 4526.79 1390.07 4524.79 1386.53C4522.8 1383 4520.13 1380.26 4516.8 1378.32C4513.46 1376.38 4509.77 1375.4 4505.72 1375.37C4502.53 1375.37 4499.53 1375.96 4496.74 1377.13C4493.95 1378.27 4491.57 1379.73 4489.6 1381.53L4483.57 1380.67L4488.74 1338.72H4529.8V1343.68H4493.32L4489.3 1376.48H4489.73C4491.78 1374.66 4494.22 1373.19 4497.04 1372.08C4499.89 1370.94 4502.98 1370.37 4506.32 1370.37C4511.22 1370.37 4515.7 1371.57 4519.75 1373.96C4523.82 1376.36 4527.06 1379.69 4529.45 1383.97C4531.88 1388.24 4533.07 1393.22 4533.05 1398.89C4533.02 1404.36 4531.85 1409.25 4529.54 1413.56C4527.23 1417.86 4524.04 1421.27 4519.96 1423.78C4515.91 1426.26 4511.28 1427.5 4506.06 1427.5ZM4580.52 1426.3V1338.72H4613.36C4620.09 1338.72 4625.74 1339.98 4630.3 1342.49C4634.89 1345 4638.35 1348.45 4640.69 1352.84C4643.06 1357.2 4644.24 1362.16 4644.24 1367.72C4644.24 1373.33 4643.06 1378.32 4640.69 1382.68C4638.32 1387.05 4634.83 1390.48 4630.21 1392.99C4625.59 1395.47 4619.91 1396.71 4613.15 1396.71H4591.38V1383.67H4611.01C4614.95 1383.67 4618.17 1382.98 4620.68 1381.62C4623.19 1380.25 4625.04 1378.37 4626.24 1375.97C4627.46 1373.58 4628.08 1370.82 4628.08 1367.72C4628.08 1364.61 4627.46 1361.87 4626.24 1359.51C4625.04 1357.14 4623.17 1355.3 4620.63 1353.99C4618.13 1352.65 4614.89 1351.98 4610.93 1351.98H4596.39V1426.3H4580.52ZM4657.34 1426.3V1360.62H4672.35V1371.57H4673.03C4674.23 1367.77 4676.28 1364.85 4679.19 1362.8C4682.12 1360.72 4685.47 1359.68 4689.24 1359.68C4690.09 1359.68 4691.05 1359.72 4692.1 1359.81C4693.19 1359.86 4694.08 1359.96 4694.8 1360.11V1374.35C4694.14 1374.12 4693.1 1373.92 4691.67 1373.75C4690.28 1373.55 4688.92 1373.45 4687.61 1373.45C4684.79 1373.45 4682.25 1374.06 4680 1375.29C4677.78 1376.48 4676.02 1378.15 4674.74 1380.29C4673.46 1382.43 4672.82 1384.89 4672.82 1387.69V1426.3H4657.34ZM4731.03 1427.59C4724.61 1427.59 4719.05 1426.17 4714.35 1423.35C4709.65 1420.53 4706 1416.58 4703.4 1411.51C4700.84 1406.43 4699.55 1400.5 4699.55 1393.72C4699.55 1386.93 4700.84 1380.99 4703.4 1375.88C4706 1370.78 4709.65 1366.82 4714.35 1364C4719.05 1361.17 4724.61 1359.76 4731.03 1359.76C4737.44 1359.76 4743 1361.17 4747.7 1364C4752.41 1366.82 4756.04 1370.78 4758.61 1375.88C4761.2 1380.99 4762.5 1386.93 4762.5 1393.72C4762.5 1400.5 4761.2 1406.43 4758.61 1411.51C4756.04 1416.58 4752.41 1420.53 4747.7 1423.35C4743 1426.17 4737.44 1427.59 4731.03 1427.59ZM4731.11 1415.18C4734.59 1415.18 4737.5 1414.23 4739.84 1412.32C4742.17 1410.38 4743.91 1407.79 4745.05 1404.54C4746.22 1401.29 4746.81 1397.67 4746.81 1393.67C4746.81 1389.65 4746.22 1386.02 4745.05 1382.77C4743.91 1379.49 4742.17 1376.88 4739.84 1374.94C4737.5 1373.01 4734.59 1372.04 4731.11 1372.04C4727.55 1372.04 4724.58 1373.01 4722.22 1374.94C4719.88 1376.88 4718.13 1379.49 4716.96 1382.77C4715.82 1386.02 4715.25 1389.65 4715.25 1393.67C4715.25 1397.67 4715.82 1401.29 4716.96 1404.54C4718.13 1407.79 4719.88 1410.38 4722.22 1412.32C4724.58 1414.23 4727.55 1415.18 4731.11 1415.18ZM4783.03 1450.93C4780.92 1450.93 4778.96 1450.76 4777.17 1450.42C4775.4 1450.11 4773.99 1449.74 4772.93 1449.31L4776.53 1437.25C4778.78 1437.91 4780.79 1438.22 4782.56 1438.19C4784.32 1438.16 4785.88 1437.61 4787.22 1436.52C4788.59 1435.47 4789.74 1433.7 4790.68 1431.22L4792.01 1427.67L4768.19 1360.62H4784.61L4799.75 1410.22H4800.43L4815.61 1360.62H4832.08L4805.78 1434.26C4804.55 1437.73 4802.93 1440.71 4800.9 1443.19C4798.88 1445.7 4796.4 1447.61 4793.46 1448.92C4790.55 1450.26 4787.07 1450.93 4783.03 1450.93ZM4869.63 1427.59C4863.05 1427.59 4857.36 1426.22 4852.57 1423.48C4847.81 1420.71 4844.14 1416.81 4841.58 1411.76C4839.01 1406.69 4837.73 1400.72 4837.73 1393.85C4837.73 1387.09 4839.01 1381.16 4841.58 1376.06C4844.17 1370.92 4847.79 1366.93 4852.44 1364.08C4857.09 1361.2 4862.55 1359.76 4868.82 1359.76C4872.87 1359.76 4876.69 1360.42 4880.28 1361.73C4883.9 1363.01 4887.09 1365.01 4889.86 1367.72C4892.65 1370.43 4894.85 1373.88 4896.44 1378.07C4898.04 1382.23 4898.84 1387.19 4898.84 1392.95V1397.69H4845V1387.26H4884C4883.97 1384.29 4883.33 1381.66 4882.08 1379.35C4880.82 1377.01 4879.07 1375.17 4876.82 1373.83C4874.59 1372.49 4872 1371.82 4869.03 1371.82C4865.87 1371.82 4863.09 1372.59 4860.69 1374.13C4858.3 1375.64 4856.43 1377.64 4855.09 1380.12C4853.78 1382.57 4853.11 1385.26 4853.08 1388.2V1397.31C4853.08 1401.13 4853.78 1404.41 4855.18 1407.14C4856.57 1409.85 4858.53 1411.93 4861.04 1413.39C4863.54 1414.81 4866.48 1415.53 4869.85 1415.53C4872.1 1415.53 4874.14 1415.21 4875.96 1414.59C4877.78 1413.93 4879.37 1412.97 4880.71 1411.72C4882.05 1410.47 4883.06 1408.91 4883.74 1407.06L4898.2 1408.68C4897.28 1412.5 4895.55 1415.84 4892.98 1418.69C4890.44 1421.51 4887.19 1423.71 4883.23 1425.28C4879.27 1426.82 4874.73 1427.59 4869.63 1427.59ZM4940.59 1427.59C4934.03 1427.59 4928.4 1426.15 4923.69 1423.27C4919.02 1420.39 4915.41 1416.41 4912.88 1411.34C4910.37 1406.23 4909.11 1400.36 4909.11 1393.72C4909.11 1387.05 4910.4 1381.16 4912.96 1376.06C4915.53 1370.92 4919.15 1366.93 4923.82 1364.08C4928.53 1361.2 4934.09 1359.76 4940.5 1359.76C4945.83 1359.76 4950.55 1360.75 4954.65 1362.71C4958.79 1364.65 4962.08 1367.4 4964.53 1370.97C4966.98 1374.5 4968.38 1378.64 4968.72 1383.37H4953.93C4953.33 1380.2 4951.9 1377.57 4949.65 1375.46C4947.43 1373.32 4944.45 1372.25 4940.71 1372.25C4937.55 1372.25 4934.77 1373.11 4932.38 1374.82C4929.98 1376.5 4928.11 1378.92 4926.77 1382.09C4925.46 1385.25 4924.81 1389.04 4924.81 1393.46C4924.81 1397.94 4925.46 1401.78 4926.77 1405.01C4928.08 1408.2 4929.92 1410.67 4932.29 1412.4C4934.68 1414.11 4937.49 1414.97 4940.71 1414.97C4942.99 1414.97 4945.03 1414.54 4946.83 1413.69C4948.65 1412.8 4950.18 1411.53 4951.4 1409.88C4952.63 1408.23 4953.47 1406.22 4953.93 1403.85H4968.72C4968.35 1408.5 4966.98 1412.62 4964.62 1416.21C4962.25 1419.77 4959.03 1422.57 4954.95 1424.59C4950.88 1426.59 4946.09 1427.59 4940.59 1427.59ZM5014.23 1360.62V1372.59H4976.47V1360.62H5014.23ZM4985.8 1344.88H5001.28V1406.55C5001.28 1408.63 5001.59 1410.22 5002.22 1411.34C5002.87 1412.42 5003.73 1413.16 5004.78 1413.56C5005.84 1413.96 5007.01 1414.16 5008.29 1414.16C5009.26 1414.16 5010.14 1414.09 5010.94 1413.94C5011.77 1413.8 5012.4 1413.67 5012.82 1413.56L5015.43 1425.66C5014.6 1425.95 5013.42 1426.26 5011.88 1426.6C5010.37 1426.94 5008.52 1427.14 5006.32 1427.2C5002.45 1427.31 4998.95 1426.73 4995.85 1425.45C4992.74 1424.14 4990.27 1422.11 4988.45 1419.37C4986.65 1416.64 4985.77 1413.22 4985.8 1409.11V1344.88ZM5046.08 1427.63C5041.92 1427.63 5038.17 1426.89 5034.83 1425.4C5031.53 1423.89 5028.91 1421.67 5026.97 1418.73C5025.06 1415.8 5024.1 1412.18 5024.1 1407.87C5024.1 1404.17 5024.79 1401.1 5026.15 1398.68C5027.52 1396.25 5029.39 1394.32 5031.76 1392.86C5034.12 1391.41 5036.79 1390.31 5039.75 1389.57C5042.75 1388.8 5045.84 1388.24 5049.03 1387.9C5052.88 1387.5 5056 1387.15 5058.4 1386.83C5060.79 1386.49 5062.53 1385.98 5063.61 1385.29C5064.73 1384.58 5065.28 1383.48 5065.28 1382V1381.74C5065.28 1378.52 5064.33 1376.03 5062.42 1374.26C5060.51 1372.49 5057.76 1371.61 5054.16 1371.61C5050.37 1371.61 5047.36 1372.44 5045.14 1374.09C5042.95 1375.74 5041.46 1377.7 5040.69 1379.95L5026.24 1377.89C5027.38 1373.9 5029.26 1370.57 5031.88 1367.89C5034.51 1365.18 5037.71 1363.16 5041.51 1361.82C5045.3 1360.45 5049.49 1359.76 5054.08 1359.76C5057.24 1359.76 5060.39 1360.13 5063.53 1360.88C5066.66 1361.62 5069.53 1362.84 5072.12 1364.55C5074.72 1366.23 5076.8 1368.53 5078.37 1371.44C5079.96 1374.35 5080.76 1377.98 5080.76 1382.34V1426.3H5065.88V1417.28H5065.37C5064.43 1419.1 5063.1 1420.81 5061.39 1422.41C5059.71 1423.98 5057.58 1425.25 5055.02 1426.22C5052.48 1427.16 5049.5 1427.63 5046.08 1427.63ZM5050.1 1416.25C5053.21 1416.25 5055.9 1415.64 5058.18 1414.41C5060.46 1413.16 5062.22 1411.51 5063.44 1409.45C5064.7 1407.4 5065.32 1405.16 5065.32 1402.74V1395C5064.84 1395.4 5064.01 1395.77 5062.84 1396.11C5061.7 1396.45 5060.42 1396.75 5059 1397.01C5057.57 1397.27 5056.16 1397.49 5054.76 1397.69C5053.37 1397.89 5052.15 1398.06 5051.13 1398.21C5048.82 1398.52 5046.75 1399.03 5044.93 1399.75C5043.1 1400.46 5041.66 1401.46 5040.61 1402.74C5039.55 1403.99 5039.03 1405.62 5039.03 1407.61C5039.03 1410.47 5040.07 1412.62 5042.15 1414.07C5044.23 1415.53 5046.88 1416.25 5050.1 1416.25ZM5096.33 1426.3V1360.62H5111.34V1371.57H5112.02C5113.22 1367.77 5115.27 1364.85 5118.18 1362.8C5121.12 1360.72 5124.47 1359.68 5128.23 1359.68C5129.08 1359.68 5130.04 1359.72 5131.09 1359.81C5132.18 1359.86 5133.08 1359.96 5133.79 1360.11V1374.35C5133.13 1374.12 5132.09 1373.92 5130.67 1373.75C5129.27 1373.55 5127.92 1373.45 5126.6 1373.45C5123.78 1373.45 5121.24 1374.06 5118.99 1375.29C5116.77 1376.48 5115.02 1378.15 5113.73 1380.29C5112.45 1382.43 5111.81 1384.89 5111.81 1387.69V1426.3H5096.33Z" fill="white"/>
<g clip-path="url(#clip1_1208_90)">
<path d="M5644.36 923.567L5846.81 721.117L6049.26 923.567L5880.53 1092.3C5861.91 1110.92 5831.71 1110.92 5813.09 1092.3L5644.36 923.567Z" fill="url(#paint70_linear_1208_90)"/>
<path d="M5475.63 754.82C5457.01 736.197 5457.01 706.001 5475.63 687.377L5644.36 518.649L5846.81 721.099L5644.36 923.549L5475.63 754.82Z" fill="url(#paint71_linear_1208_90)"/>
<path d="M5846.81 721.099L6049.26 518.649L6217.99 687.377C6236.61 706.001 6236.61 736.197 6217.99 754.82L6049.26 923.549L5846.81 721.099Z" fill="url(#paint72_linear_1208_90)"/>
</g>
<path d="M5637.32 1427.5C5631.48 1427.5 5626.46 1425.7 5622.27 1422.11C5618.08 1418.52 5614.86 1413.37 5612.6 1406.67C5610.38 1399.95 5609.27 1391.89 5609.27 1382.51C5609.27 1373.16 5610.39 1365.12 5612.65 1358.39C5614.9 1351.67 5618.1 1346.51 5622.27 1342.91C5626.46 1339.32 5631.48 1337.53 5637.32 1337.53C5643.16 1337.53 5648.17 1339.32 5652.33 1342.91C5656.52 1346.51 5659.74 1351.67 5661.99 1358.39C5664.25 1365.12 5665.37 1373.16 5665.37 1382.51C5665.37 1391.89 5664.25 1399.95 5661.99 1406.67C5659.77 1413.37 5656.56 1418.52 5652.37 1422.11C5648.18 1425.7 5643.16 1427.5 5637.32 1427.5ZM5637.32 1422.54C5644.42 1422.54 5649.99 1419.02 5654.04 1411.98C5658.09 1404.91 5660.11 1395.09 5660.11 1382.51C5660.11 1374.13 5659.19 1366.95 5657.33 1360.96C5655.51 1354.97 5652.9 1350.4 5649.51 1347.23C5646.11 1344.04 5642.05 1342.44 5637.32 1342.44C5630.22 1342.44 5624.65 1345.98 5620.6 1353.05C5616.55 1360.12 5614.53 1369.94 5614.53 1382.51C5614.53 1390.89 5615.44 1398.08 5617.26 1404.07C5619.09 1410.02 5621.7 1414.6 5625.09 1417.79C5628.51 1420.96 5632.59 1422.54 5637.32 1422.54ZM5710.18 1427.5C5706.5 1427.47 5703.01 1426.69 5699.7 1425.15C5696.39 1423.58 5693.46 1421.16 5690.89 1417.88C5688.35 1414.57 5686.34 1410.32 5684.86 1405.13C5683.41 1399.92 5682.68 1393.67 5682.68 1386.4C5682.68 1379.88 5683.19 1373.68 5684.22 1367.8C5685.27 1361.93 5686.93 1356.73 5689.18 1352.19C5691.43 1347.63 5694.37 1344.06 5697.99 1341.46C5701.64 1338.84 5706.04 1337.53 5711.2 1337.53C5715.71 1337.53 5719.67 1338.51 5723.09 1340.48C5726.54 1342.42 5729.29 1345.12 5731.34 1348.6C5733.4 1352.05 5734.64 1356.06 5735.06 1360.62H5729.76C5729.16 1355.29 5727.25 1350.94 5724.03 1347.58C5720.84 1344.18 5716.56 1342.49 5711.2 1342.49C5703.62 1342.49 5697.82 1346.19 5693.8 1353.61C5689.81 1361.02 5687.81 1371.62 5687.81 1385.42H5688.28C5689.42 1382.68 5691.1 1380.28 5693.33 1378.19C5695.58 1376.08 5698.17 1374.45 5701.11 1373.28C5704.05 1372.11 5707.14 1371.52 5710.39 1371.52C5715.12 1371.52 5719.44 1372.73 5723.35 1375.16C5727.28 1377.58 5730.43 1380.9 5732.8 1385.12C5735.16 1389.34 5736.35 1394.12 5736.35 1399.45C5736.35 1404.49 5735.25 1409.15 5733.05 1413.43C5730.86 1417.68 5727.8 1421.1 5723.86 1423.69C5719.96 1426.26 5715.39 1427.53 5710.18 1427.5ZM5710.18 1422.54C5714.17 1422.54 5717.73 1421.5 5720.87 1419.42C5724.03 1417.34 5726.53 1414.56 5728.35 1411.08C5730.18 1407.57 5731.09 1403.69 5731.09 1399.45C5731.09 1395.17 5730.15 1391.29 5728.27 1387.82C5726.38 1384.34 5723.83 1381.59 5720.61 1379.56C5717.42 1377.51 5713.83 1376.48 5709.83 1376.48C5706.7 1376.48 5703.79 1377.13 5701.11 1378.41C5698.43 1379.66 5696.12 1381.4 5694.18 1383.62C5692.27 1385.85 5690.86 1388.4 5689.95 1391.28C5689.07 1394.13 5688.82 1397.14 5689.22 1400.3C5689.88 1404.89 5691.16 1408.86 5693.07 1412.19C5695.01 1415.5 5697.43 1418.05 5700.34 1419.85C5703.28 1421.64 5706.56 1422.54 5710.18 1422.54ZM5842.65 1366.69C5841.93 1364.38 5840.95 1362.31 5839.69 1360.49C5838.47 1358.64 5836.99 1357.06 5835.25 1355.74C5833.54 1354.43 5831.57 1353.45 5829.35 1352.79C5827.12 1352.11 5824.7 1351.77 5822.08 1351.77C5817.37 1351.77 5813.18 1352.95 5809.5 1355.32C5805.83 1357.68 5802.93 1361.16 5800.82 1365.75C5798.74 1370.31 5797.7 1375.87 5797.7 1382.43C5797.7 1389.04 5798.74 1394.64 5800.82 1399.23C5802.9 1403.82 5805.8 1407.32 5809.5 1409.71C5813.21 1412.08 5817.52 1413.26 5822.42 1413.26C5826.87 1413.26 5830.71 1412.4 5833.96 1410.69C5837.24 1408.98 5839.77 1406.56 5841.53 1403.42C5843.3 1400.26 5844.18 1396.55 5844.18 1392.31L5847.78 1392.86H5824V1380.46H5859.54V1390.98C5859.54 1398.48 5857.94 1404.96 5854.75 1410.44C5851.55 1415.91 5847.16 1420.13 5841.58 1423.1C5835.99 1426.03 5829.57 1427.5 5822.33 1427.5C5814.27 1427.5 5807.18 1425.69 5801.08 1422.07C5795.01 1418.42 5790.26 1413.25 5786.84 1406.55C5783.45 1399.82 5781.75 1391.84 5781.75 1382.6C5781.75 1375.53 5782.75 1369.21 5784.74 1363.65C5786.77 1358.1 5789.59 1353.38 5793.21 1349.5C5796.83 1345.59 5801.08 1342.63 5805.95 1340.61C5810.83 1338.55 5816.13 1337.53 5821.86 1337.53C5826.71 1337.53 5831.23 1338.24 5835.42 1339.66C5839.61 1341.06 5843.33 1343.06 5846.58 1345.65C5849.86 1348.25 5852.55 1351.32 5854.66 1354.89C5856.77 1358.45 5858.15 1362.39 5858.81 1366.69H5842.65ZM5916.06 1398.68V1360.62H5931.54V1426.3H5916.53V1414.63H5915.84C5914.36 1418.31 5911.92 1421.31 5908.53 1423.65C5905.17 1425.99 5901.02 1427.16 5896.09 1427.16C5891.78 1427.16 5887.98 1426.2 5884.67 1424.29C5881.39 1422.35 5878.83 1419.55 5876.97 1415.87C5875.12 1412.16 5874.19 1407.69 5874.19 1402.44V1360.62H5889.67V1400.05C5889.67 1404.21 5890.81 1407.52 5893.09 1409.97C5895.38 1412.42 5898.37 1413.64 5902.07 1413.64C5904.36 1413.64 5906.57 1413.09 5908.7 1411.98C5910.84 1410.86 5912.59 1409.21 5913.96 1407.02C5915.36 1404.79 5916.06 1402.01 5916.06 1398.68ZM5947.46 1426.3V1360.62H5962.94V1426.3H5947.46ZM5955.24 1351.3C5952.79 1351.3 5950.68 1350.48 5948.91 1348.86C5947.14 1347.21 5946.26 1345.22 5946.26 1342.91C5946.26 1340.58 5947.14 1338.6 5948.91 1336.97C5950.68 1335.32 5952.79 1334.49 5955.24 1334.49C5957.72 1334.49 5959.83 1335.32 5961.57 1336.97C5963.34 1338.6 5964.22 1340.58 5964.22 1342.91C5964.22 1345.22 5963.34 1347.21 5961.57 1348.86C5959.83 1350.48 5957.72 1351.3 5955.24 1351.3ZM5997.76 1427.63C5993.59 1427.63 5989.85 1426.89 5986.51 1425.4C5983.2 1423.89 5980.58 1421.67 5978.64 1418.73C5976.73 1415.8 5975.78 1412.18 5975.78 1407.87C5975.78 1404.17 5976.46 1401.1 5977.83 1398.68C5979.2 1396.25 5981.06 1394.32 5983.43 1392.86C5985.8 1391.41 5988.46 1390.31 5991.43 1389.57C5994.42 1388.8 5997.51 1388.24 6000.71 1387.9C6004.56 1387.5 6007.68 1387.15 6010.07 1386.83C6012.47 1386.49 6014.21 1385.98 6015.29 1385.29C6016.4 1384.58 6016.96 1383.48 6016.96 1382V1381.74C6016.96 1378.52 6016 1376.03 6014.09 1374.26C6012.18 1372.49 6009.43 1371.61 6005.84 1371.61C6002.05 1371.61 5999.04 1372.44 5996.82 1374.09C5994.62 1375.74 5993.14 1377.7 5992.37 1379.95L5977.91 1377.89C5979.06 1373.9 5980.94 1370.57 5983.56 1367.89C5986.18 1365.18 5989.39 1363.16 5993.18 1361.82C5996.97 1360.45 6001.16 1359.76 6005.75 1359.76C6008.92 1359.76 6012.07 1360.13 6015.2 1360.88C6018.34 1361.62 6021.2 1362.84 6023.8 1364.55C6026.39 1366.23 6028.47 1368.53 6030.04 1371.44C6031.64 1374.35 6032.44 1377.98 6032.44 1382.34V1426.3H6017.56V1417.28H6017.04C6016.1 1419.1 6014.78 1420.81 6013.07 1422.41C6011.38 1423.98 6009.26 1425.25 6006.69 1426.22C6004.16 1427.16 6001.18 1427.63 5997.76 1427.63ZM6001.78 1416.25C6004.88 1416.25 6007.58 1415.64 6009.86 1414.41C6012.14 1413.16 6013.89 1411.51 6015.12 1409.45C6016.37 1407.4 6017 1405.16 6017 1402.74V1395C6016.52 1395.4 6015.69 1395.77 6014.52 1396.11C6013.38 1396.45 6012.1 1396.75 6010.67 1397.01C6009.25 1397.27 6007.83 1397.49 6006.44 1397.69C6005.04 1397.89 6003.83 1398.06 6002.8 1398.21C6000.49 1398.52 5998.43 1399.03 5996.6 1399.75C5994.78 1400.46 5993.34 1401.46 5992.28 1402.74C5991.23 1403.99 5990.7 1405.62 5990.7 1407.61C5990.7 1410.47 5991.74 1412.62 5993.82 1414.07C5995.9 1415.53 5998.55 1416.25 6001.78 1416.25ZM6048 1426.3V1360.62H6063.01V1371.57H6063.7C6064.89 1367.77 6066.95 1364.85 6069.85 1362.8C6072.79 1360.72 6076.14 1359.68 6079.9 1359.68C6080.76 1359.68 6081.71 1359.72 6082.77 1359.81C6083.85 1359.86 6084.75 1359.96 6085.46 1360.11V1374.35C6084.81 1374.12 6083.77 1373.92 6082.34 1373.75C6080.94 1373.55 6079.59 1373.45 6078.28 1373.45C6075.46 1373.45 6072.92 1374.06 6070.67 1375.29C6068.44 1376.48 6066.69 1378.15 6065.41 1380.29C6064.12 1382.43 6063.48 1384.89 6063.48 1387.69V1426.3H6048Z" fill="white"/>
<path d="M6824.75 924.003H7027.43C7027.43 1035.94 6936.68 1126.68 6824.75 1126.68C6712.81 1126.68 6622.07 1035.94 6622.07 924.003C6622.07 812.066 6712.81 721.323 6824.75 721.323V924.003Z" fill="url(#paint73_linear_1208_90)"/>
<path d="M7027.43 721.327C7139.36 721.328 7230.1 812.07 7230.1 924.004C7230.1 1035.94 7139.36 1126.68 7027.43 1126.68C6915.49 1126.68 6824.75 1035.94 6824.75 924.004V924.003H7027.43V721.327Z" fill="url(#paint74_linear_1208_90)"/>
<path d="M7027.42 518.641C7139.36 518.641 7230.1 609.382 7230.1 721.317C7230.1 833.251 7139.36 923.991 7027.43 923.993V721.32H6824.75V721.317C6824.75 609.382 6915.49 518.641 7027.42 518.641Z" fill="url(#paint75_linear_1208_90)"/>
<path d="M6824.75 518.64C6936.68 518.64 7027.43 609.383 7027.43 721.319H6824.75V923.999C6712.81 923.999 6622.07 833.256 6622.07 721.319C6622.07 609.382 6712.81 518.64 6824.75 518.64Z" fill="url(#paint76_linear_1208_90)"/>
<path d="M6632.83 1427.49C6626.99 1427.49 6621.97 1425.7 6617.78 1422.1C6613.59 1418.51 6610.37 1413.37 6608.12 1406.67C6605.89 1399.94 6604.78 1391.88 6604.78 1382.51C6604.78 1373.15 6605.91 1365.11 6608.16 1358.39C6610.41 1351.66 6613.62 1346.5 6617.78 1342.91C6621.97 1339.31 6626.99 1337.52 6632.83 1337.52C6638.68 1337.52 6643.68 1339.31 6647.84 1342.91C6652.03 1346.5 6655.26 1351.66 6657.51 1358.39C6659.76 1365.11 6660.89 1373.15 6660.89 1382.51C6660.89 1391.88 6659.76 1399.94 6657.51 1406.67C6655.28 1413.37 6652.08 1418.51 6647.89 1422.1C6643.69 1425.7 6638.68 1427.49 6632.83 1427.49ZM6632.83 1422.53C6639.93 1422.53 6645.51 1419.01 6649.55 1411.97C6653.6 1404.9 6655.63 1395.08 6655.63 1382.51C6655.63 1374.12 6654.7 1366.94 6652.85 1360.95C6651.02 1354.97 6648.41 1350.39 6645.02 1347.23C6641.63 1344.03 6637.57 1342.44 6632.83 1342.44C6625.73 1342.44 6620.16 1345.97 6616.11 1353.04C6612.06 1360.11 6610.04 1369.93 6610.04 1382.51C6610.04 1390.89 6610.95 1398.07 6612.78 1404.06C6614.6 1410.02 6617.21 1414.59 6620.6 1417.78C6624.02 1420.95 6628.1 1422.53 6632.83 1422.53ZM6679.48 1426.29L6720.14 1344.15V1343.68H6673.4V1338.72H6725.96V1343.85L6685.25 1426.29H6679.48ZM6787.32 1426.29H6770.39L6801.22 1338.72H6820.81L6851.68 1426.29H6834.75L6811.36 1356.68H6810.67L6787.32 1426.29ZM6787.88 1391.96H6834.06V1404.7H6787.88V1391.96ZM6889.19 1427.58C6882.63 1427.58 6877 1426.14 6872.29 1423.26C6867.62 1420.38 6864.01 1416.4 6861.48 1411.33C6858.97 1406.22 6857.71 1400.35 6857.71 1393.71C6857.71 1387.04 6858.99 1381.15 6861.56 1376.05C6864.13 1370.92 6867.75 1366.93 6872.42 1364.07C6877.13 1361.19 6882.69 1359.76 6889.1 1359.76C6894.43 1359.76 6899.15 1360.74 6903.25 1362.71C6907.39 1364.64 6910.68 1367.4 6913.13 1370.96C6915.58 1374.49 6916.98 1378.63 6917.32 1383.36H6902.53C6901.93 1380.2 6900.5 1377.56 6898.25 1375.45C6896.03 1373.31 6893.05 1372.24 6889.31 1372.24C6886.15 1372.24 6883.37 1373.1 6880.98 1374.81C6878.58 1376.49 6876.71 1378.91 6875.37 1382.08C6874.06 1385.24 6873.41 1389.03 6873.41 1393.45C6873.41 1397.93 6874.06 1401.78 6875.37 1405C6876.68 1408.19 6878.52 1410.66 6880.89 1412.4C6883.28 1414.11 6886.09 1414.96 6889.31 1414.96C6891.59 1414.96 6893.63 1414.53 6895.43 1413.68C6897.25 1412.8 6898.78 1411.53 6900 1409.87C6901.23 1408.22 6902.07 1406.21 6902.53 1403.84H6917.32C6916.95 1408.49 6915.58 1412.61 6913.22 1416.2C6910.85 1419.77 6907.63 1422.56 6903.55 1424.58C6899.48 1426.58 6894.69 1427.58 6889.19 1427.58ZM6958.69 1427.58C6952.13 1427.58 6946.5 1426.14 6941.79 1423.26C6937.12 1420.38 6933.51 1416.4 6930.98 1411.33C6928.47 1406.22 6927.21 1400.35 6927.21 1393.71C6927.21 1387.04 6928.5 1381.15 6931.06 1376.05C6933.63 1370.92 6937.25 1366.93 6941.92 1364.07C6946.63 1361.19 6952.19 1359.76 6958.6 1359.76C6963.93 1359.76 6968.65 1360.74 6972.75 1362.71C6976.89 1364.64 6980.18 1367.4 6982.63 1370.96C6985.08 1374.49 6986.48 1378.63 6986.82 1383.36H6972.03C6971.43 1380.2 6970 1377.56 6967.75 1375.45C6965.53 1373.31 6962.55 1372.24 6958.81 1372.24C6955.65 1372.24 6952.87 1373.1 6950.48 1374.81C6948.08 1376.49 6946.21 1378.91 6944.87 1382.08C6943.56 1385.24 6942.91 1389.03 6942.91 1393.45C6942.91 1397.93 6943.56 1401.78 6944.87 1405C6946.18 1408.19 6948.02 1410.66 6950.39 1412.4C6952.78 1414.11 6955.59 1414.96 6958.81 1414.96C6961.09 1414.96 6963.13 1414.53 6964.93 1413.68C6966.75 1412.8 6968.28 1411.53 6969.5 1409.87C6970.73 1408.22 6971.57 1406.21 6972.03 1403.84H6986.82C6986.45 1408.49 6985.08 1412.61 6982.72 1416.2C6980.35 1419.77 6977.13 1422.56 6973.05 1424.58C6968.98 1426.58 6964.19 1427.58 6958.69 1427.58ZM7028.61 1427.58C7022.03 1427.58 7016.34 1426.21 7011.55 1423.47C7006.79 1420.71 7003.13 1416.8 7000.56 1411.75C6998 1406.68 6996.71 1400.71 6996.71 1393.84C6996.71 1387.08 6998 1381.15 7000.56 1376.05C7003.16 1370.92 7006.78 1366.93 7011.42 1364.07C7016.07 1361.19 7021.53 1359.76 7027.8 1359.76C7031.85 1359.76 7035.67 1360.41 7039.26 1361.72C7042.88 1363.01 7046.08 1365 7048.84 1367.71C7051.63 1370.42 7053.83 1373.87 7055.43 1378.06C7057.02 1382.22 7057.82 1387.18 7057.82 1392.94V1397.69H7003.98V1387.25H7042.98C7042.95 1384.29 7042.31 1381.65 7041.06 1379.34C7039.8 1377 7038.05 1375.16 7035.8 1373.82C7033.57 1372.48 7030.98 1371.81 7028.01 1371.81C7024.85 1371.81 7022.07 1372.58 7019.68 1374.12C7017.28 1375.63 7015.41 1377.63 7014.07 1380.11C7012.76 1382.56 7012.09 1385.26 7012.06 1388.19V1397.3C7012.06 1401.12 7012.76 1404.4 7014.16 1407.14C7015.56 1409.84 7017.51 1411.93 7020.02 1413.38C7022.53 1414.81 7025.46 1415.52 7028.83 1415.52C7031.08 1415.52 7033.12 1415.2 7034.94 1414.58C7036.77 1413.92 7038.35 1412.97 7039.69 1411.71C7041.03 1410.46 7042.04 1408.9 7042.73 1407.05L7057.18 1408.68C7056.27 1412.5 7054.53 1415.83 7051.96 1418.68C7049.42 1421.5 7046.17 1423.7 7042.21 1425.27C7038.25 1426.81 7033.72 1427.58 7028.61 1427.58ZM7095.29 1427.45C7090.13 1427.45 7085.51 1426.12 7081.44 1423.47C7077.36 1420.82 7074.14 1416.97 7071.77 1411.93C7069.41 1406.88 7068.22 1400.75 7068.22 1393.54C7068.22 1386.24 7069.42 1380.08 7071.81 1375.06C7074.24 1370.02 7077.5 1366.21 7081.61 1363.65C7085.71 1361.05 7090.29 1359.76 7095.33 1359.76C7099.18 1359.76 7102.35 1360.41 7104.83 1361.72C7107.31 1363.01 7109.28 1364.56 7110.73 1366.38C7112.18 1368.18 7113.31 1369.88 7114.11 1371.47H7114.75V1338.72H7130.27V1426.29H7115.05V1415.95H7114.11C7113.31 1417.54 7112.15 1419.24 7110.64 1421.03C7109.13 1422.8 7107.14 1424.31 7104.66 1425.57C7102.18 1426.82 7099.05 1427.45 7095.29 1427.45ZM7099.61 1414.75C7102.89 1414.75 7105.68 1413.86 7107.99 1412.1C7110.3 1410.3 7112.05 1407.81 7113.25 1404.61C7114.45 1401.42 7115.05 1397.7 7115.05 1393.45C7115.05 1389.2 7114.45 1385.51 7113.25 1382.38C7112.08 1379.24 7110.34 1376.8 7108.03 1375.06C7105.75 1373.33 7102.95 1372.46 7099.61 1372.46C7096.16 1372.46 7093.28 1373.35 7090.97 1375.15C7088.66 1376.95 7086.92 1379.43 7085.76 1382.59C7084.59 1385.76 7084 1389.38 7084 1393.45C7084 1397.56 7084.59 1401.22 7085.76 1404.44C7086.95 1407.64 7088.71 1410.16 7091.02 1412.01C7093.35 1413.84 7096.22 1414.75 7099.61 1414.75ZM7175.85 1427.58C7169.26 1427.58 7163.57 1426.21 7158.78 1423.47C7154.02 1420.71 7150.36 1416.8 7147.79 1411.75C7145.23 1406.68 7143.94 1400.71 7143.94 1393.84C7143.94 1387.08 7145.23 1381.15 7147.79 1376.05C7150.39 1370.92 7154.01 1366.93 7158.66 1364.07C7163.3 1361.19 7168.76 1359.76 7175.03 1359.76C7179.08 1359.76 7182.9 1360.41 7186.49 1361.72C7190.11 1363.01 7193.31 1365 7196.07 1367.71C7198.87 1370.42 7201.06 1373.87 7202.66 1378.06C7204.25 1382.22 7205.05 1387.18 7205.05 1392.94V1397.69H7151.21V1387.25H7190.21C7190.19 1384.29 7189.54 1381.65 7188.29 1379.34C7187.04 1377 7185.28 1375.16 7183.03 1373.82C7180.81 1372.48 7178.21 1371.81 7175.25 1371.81C7172.08 1371.81 7169.3 1372.58 7166.91 1374.12C7164.51 1375.63 7162.65 1377.63 7161.31 1380.11C7160 1382.56 7159.33 1385.26 7159.3 1388.19V1397.3C7159.3 1401.12 7160 1404.4 7161.39 1407.14C7162.79 1409.84 7164.74 1411.93 7167.25 1413.38C7169.76 1414.81 7172.7 1415.52 7176.06 1415.52C7178.31 1415.52 7180.35 1415.2 7182.17 1414.58C7184 1413.92 7185.58 1412.97 7186.92 1411.71C7188.26 1410.46 7189.27 1408.9 7189.96 1407.05L7204.41 1408.68C7203.5 1412.5 7201.76 1415.83 7199.19 1418.68C7196.66 1421.5 7193.41 1423.7 7189.44 1425.27C7185.48 1426.81 7180.95 1427.58 7175.85 1427.58ZM7218.15 1426.29V1360.61H7233.16V1371.56H7233.84C7235.04 1367.77 7237.09 1364.84 7240 1362.79C7242.94 1360.71 7246.29 1359.67 7250.05 1359.67C7250.91 1359.67 7251.86 1359.71 7252.92 1359.8C7254 1359.86 7254.9 1359.95 7255.61 1360.1V1374.34C7254.95 1374.11 7253.91 1373.91 7252.49 1373.74C7251.09 1373.54 7249.74 1373.44 7248.43 1373.44C7245.6 1373.44 7243.07 1374.05 7240.81 1375.28C7238.59 1376.48 7236.84 1378.14 7235.55 1380.28C7234.27 1382.42 7233.63 1384.89 7233.63 1387.68V1426.29H7218.15Z" fill="white"/>
<path d="M8007.33 1115.72C8191.69 1115.72 8341.15 966.258 8341.15 781.891H7673.5C7673.5 966.258 7822.96 1115.72 8007.33 1115.72Z" fill="url(#paint77_linear_1208_90)"/>
<path d="M8007.33 1029.28C8145.6 1029.28 8257.7 917.187 8257.7 778.912H7756.96C7756.96 917.187 7869.05 1029.28 8007.33 1029.28Z" fill="url(#paint78_linear_1208_90)"/>
<path d="M8007.33 531.521C7869.05 531.521 7756.96 643.616 7756.96 781.891L8257.7 781.891C8257.7 643.616 8145.6 531.521 8007.33 531.521Z" fill="url(#paint79_linear_1208_90)"/>
<path d="M7708.45 1427.5C7702.6 1427.5 7697.59 1425.7 7693.4 1422.11C7689.2 1418.52 7685.98 1413.37 7683.73 1406.67C7681.51 1399.95 7680.4 1391.89 7680.4 1382.51C7680.4 1373.16 7681.52 1365.12 7683.77 1358.39C7686.03 1351.67 7689.23 1346.51 7693.4 1342.91C7697.59 1339.32 7702.6 1337.53 7708.45 1337.53C7714.29 1337.53 7719.3 1339.32 7723.46 1342.91C7727.65 1346.51 7730.87 1351.67 7733.12 1358.39C7735.37 1365.12 7736.5 1373.16 7736.5 1382.51C7736.5 1391.89 7735.37 1399.95 7733.12 1406.67C7730.9 1413.37 7727.69 1418.52 7723.5 1422.11C7719.31 1425.7 7714.29 1427.5 7708.45 1427.5ZM7708.45 1422.54C7715.55 1422.54 7721.12 1419.02 7725.17 1411.98C7729.22 1404.91 7731.24 1395.09 7731.24 1382.51C7731.24 1374.13 7730.31 1366.95 7728.46 1360.96C7726.64 1354.97 7724.03 1350.4 7720.64 1347.23C7717.24 1344.04 7713.18 1342.44 7708.45 1342.44C7701.35 1342.44 7695.78 1345.98 7691.73 1353.05C7687.68 1360.12 7685.66 1369.94 7685.66 1382.51C7685.66 1390.89 7686.57 1398.08 7688.39 1404.07C7690.22 1410.02 7692.83 1414.6 7696.22 1417.79C7699.64 1420.96 7703.72 1422.54 7708.45 1422.54ZM7781.31 1427.5C7776 1427.5 7771.23 1426.44 7766.98 1424.34C7762.73 1422.2 7759.37 1419.32 7756.89 1415.7C7754.44 1412.08 7753.22 1408.01 7753.25 1403.51C7753.22 1399.95 7753.98 1396.6 7755.52 1393.46C7757.09 1390.32 7759.23 1387.66 7761.93 1385.46C7764.64 1383.24 7767.73 1381.76 7771.21 1381.02V1380.63C7766.79 1379.23 7763.19 1376.65 7760.39 1372.89C7757.63 1369.13 7756.25 1364.87 7756.25 1360.11C7756.25 1355.86 7757.34 1352.04 7759.54 1348.64C7761.76 1345.22 7764.77 1342.52 7768.56 1340.52C7772.35 1338.52 7776.6 1337.53 7781.31 1337.53C7785.92 1337.53 7790.13 1338.52 7793.92 1340.52C7797.71 1342.49 7800.72 1345.18 7802.94 1348.6C7805.2 1351.99 7806.32 1355.83 7806.32 1360.11C7806.32 1364.84 7804.94 1369.1 7802.17 1372.89C7799.44 1376.65 7795.84 1379.23 7791.4 1380.63V1381.02C7794.85 1381.73 7797.91 1383.2 7800.59 1385.42C7803.3 1387.62 7805.42 1390.3 7806.96 1393.46C7808.53 1396.6 7809.33 1399.95 7809.36 1403.51C7809.33 1408.01 7808.07 1412.08 7805.59 1415.7C7803.14 1419.32 7799.79 1422.2 7795.55 1424.34C7791.33 1426.44 7786.58 1427.5 7781.31 1427.5ZM7781.31 1422.54C7785.67 1422.54 7789.56 1421.68 7792.98 1419.97C7796.4 1418.26 7799.09 1415.95 7801.06 1413.05C7803.03 1410.11 7804.03 1406.83 7804.05 1403.21C7804.03 1399.53 7803 1396.2 7800.98 1393.2C7798.98 1390.21 7796.27 1387.83 7792.85 1386.06C7789.43 1384.29 7785.58 1383.41 7781.31 1383.41C7777 1383.41 7773.12 1384.29 7769.67 1386.06C7766.25 1387.83 7763.53 1390.21 7761.51 1393.2C7759.51 1396.2 7758.53 1399.53 7758.56 1403.21C7758.53 1406.83 7759.5 1410.11 7761.46 1413.05C7763.46 1415.95 7766.17 1418.26 7769.59 1419.97C7773.04 1421.68 7776.94 1422.54 7781.31 1422.54ZM7781.31 1378.79C7784.98 1378.79 7788.3 1377.97 7791.27 1376.31C7794.26 1374.66 7796.64 1372.44 7798.41 1369.64C7800.18 1366.85 7801.06 1363.74 7801.06 1360.32C7801.06 1356.9 7800.18 1353.85 7798.41 1351.17C7796.67 1348.46 7794.3 1346.34 7791.31 1344.8C7788.35 1343.23 7785.01 1342.44 7781.31 1342.44C7777.57 1342.44 7774.21 1343.23 7771.21 1344.8C7768.22 1346.34 7765.85 1348.46 7764.11 1351.17C7762.38 1353.85 7761.51 1356.9 7761.51 1360.32C7761.51 1363.74 7762.38 1366.85 7764.11 1369.64C7765.88 1372.44 7768.26 1374.66 7771.26 1376.31C7774.25 1377.97 7777.6 1378.79 7781.31 1378.79ZM7867.53 1426.3H7850.59L7881.42 1338.72H7901.01L7931.88 1426.3H7914.95L7891.56 1356.68H7890.87L7867.53 1426.3ZM7868.08 1391.96H7914.27V1404.71H7868.08V1391.96ZM7942.73 1450.93V1360.62H7957.96V1371.48H7958.86C7959.65 1369.88 7960.78 1368.19 7962.23 1366.39C7963.69 1364.57 7965.66 1363.01 7968.14 1361.73C7970.62 1360.42 7973.78 1359.76 7977.63 1359.76C7982.7 1359.76 7987.28 1361.06 7991.36 1363.65C7995.46 1366.22 7998.71 1370.03 8001.11 1375.07C8003.53 1380.09 8004.74 1386.25 8004.74 1393.55C8004.74 1400.76 8003.56 1406.89 8001.19 1411.93C7998.83 1416.98 7995.6 1420.83 7991.53 1423.48C7987.45 1426.13 7982.83 1427.46 7977.67 1427.46C7973.91 1427.46 7970.79 1426.83 7968.31 1425.58C7965.83 1424.32 7963.83 1422.81 7962.32 1421.04C7960.84 1419.25 7959.68 1417.55 7958.86 1415.95H7958.21V1450.93H7942.73ZM7957.92 1393.46C7957.92 1397.71 7958.51 1401.43 7959.71 1404.62C7960.94 1407.81 7962.69 1410.31 7964.97 1412.1C7967.28 1413.87 7970.07 1414.76 7973.35 1414.76C7976.77 1414.76 7979.64 1413.84 7981.95 1412.02C7984.26 1410.17 7986 1407.64 7987.17 1404.45C7988.36 1401.23 7988.96 1397.57 7988.96 1393.46C7988.96 1389.38 7988.38 1385.76 7987.21 1382.6C7986.04 1379.43 7984.3 1376.95 7981.99 1375.16C7979.68 1373.36 7976.8 1372.46 7973.35 1372.46C7970.05 1372.46 7967.24 1373.33 7964.93 1375.07C7962.62 1376.81 7960.87 1379.25 7959.67 1382.38C7958.5 1385.52 7957.92 1389.21 7957.92 1393.46ZM8018 1426.3V1360.62H8033.01V1371.57H8033.69C8034.89 1367.77 8036.94 1364.85 8039.85 1362.8C8042.79 1360.72 8046.14 1359.68 8049.9 1359.68C8050.75 1359.68 8051.71 1359.72 8052.76 1359.81C8053.85 1359.86 8054.74 1359.96 8055.46 1360.11V1374.35C8054.8 1374.12 8053.76 1373.92 8052.34 1373.75C8050.94 1373.55 8049.58 1373.45 8048.27 1373.45C8045.45 1373.45 8042.91 1374.06 8040.66 1375.29C8038.44 1376.48 8036.68 1378.15 8035.4 1380.29C8034.12 1382.43 8033.48 1384.89 8033.48 1387.69V1426.3H8018ZM8092.12 1427.59C8085.53 1427.59 8079.84 1426.22 8075.05 1423.48C8070.29 1420.71 8066.63 1416.81 8064.06 1411.76C8061.5 1406.69 8060.21 1400.72 8060.21 1393.85C8060.21 1387.09 8061.5 1381.16 8064.06 1376.06C8066.66 1370.92 8070.28 1366.93 8074.93 1364.08C8079.57 1361.2 8085.03 1359.76 8091.3 1359.76C8095.35 1359.76 8099.17 1360.42 8102.76 1361.73C8106.38 1363.01 8109.58 1365.01 8112.34 1367.72C8115.14 1370.43 8117.33 1373.88 8118.93 1378.07C8120.52 1382.23 8121.32 1387.19 8121.32 1392.95V1397.69H8067.48V1387.26H8106.48C8106.46 1384.29 8105.81 1381.66 8104.56 1379.35C8103.31 1377.01 8101.55 1375.17 8099.3 1373.83C8097.08 1372.49 8094.48 1371.82 8091.52 1371.82C8088.35 1371.82 8085.57 1372.59 8083.18 1374.13C8080.78 1375.64 8078.92 1377.64 8077.58 1380.12C8076.27 1382.57 8075.6 1385.26 8075.57 1388.2V1397.31C8075.57 1401.13 8076.27 1404.41 8077.66 1407.14C8079.06 1409.85 8081.01 1411.93 8083.52 1413.39C8086.03 1414.81 8088.97 1415.53 8092.33 1415.53C8094.58 1415.53 8096.62 1415.21 8098.44 1414.59C8100.27 1413.93 8101.85 1412.97 8103.19 1411.72C8104.53 1410.47 8105.54 1408.91 8106.23 1407.06L8120.68 1408.68C8119.77 1412.5 8118.03 1415.84 8115.46 1418.69C8112.93 1421.51 8109.68 1423.71 8105.71 1425.28C8101.75 1426.82 8097.22 1427.59 8092.12 1427.59ZM8149.9 1387.82V1426.3H8134.42V1360.62H8149.21V1371.78H8149.98C8151.5 1368.1 8153.9 1365.18 8157.21 1363.01C8160.55 1360.85 8164.67 1359.76 8169.57 1359.76C8174.1 1359.76 8178.05 1360.73 8181.42 1362.67C8184.81 1364.61 8187.43 1367.42 8189.28 1371.1C8191.17 1374.77 8192.09 1379.23 8192.06 1384.48V1426.3H8176.58V1386.87C8176.58 1382.48 8175.44 1379.05 8173.16 1376.57C8170.91 1374.09 8167.79 1372.85 8163.8 1372.85C8161.09 1372.85 8158.68 1373.45 8156.57 1374.64C8154.49 1375.81 8152.85 1377.51 8151.65 1379.73C8150.48 1381.96 8149.9 1384.65 8149.9 1387.82ZM8232.17 1427.46C8227.01 1427.46 8222.4 1426.13 8218.32 1423.48C8214.24 1420.83 8211.02 1416.98 8208.66 1411.93C8206.29 1406.89 8205.11 1400.76 8205.11 1393.55C8205.11 1386.25 8206.3 1380.09 8208.7 1375.07C8211.12 1370.03 8214.39 1366.22 8218.49 1363.65C8222.6 1361.06 8227.17 1359.76 8232.22 1359.76C8236.07 1359.76 8239.23 1360.42 8241.71 1361.73C8244.19 1363.01 8246.16 1364.57 8247.61 1366.39C8249.07 1368.19 8250.19 1369.88 8250.99 1371.48H8251.63V1338.72H8267.15V1426.3H8251.93V1415.95H8250.99C8250.19 1417.55 8249.04 1419.25 8247.53 1421.04C8246.02 1422.81 8244.02 1424.32 8241.54 1425.58C8239.06 1426.83 8235.94 1427.46 8232.17 1427.46ZM8236.49 1414.76C8239.77 1414.76 8242.57 1413.87 8244.88 1412.1C8247.18 1410.31 8248.94 1407.81 8250.14 1404.62C8251.33 1401.43 8251.93 1397.71 8251.93 1393.46C8251.93 1389.21 8251.33 1385.52 8250.14 1382.38C8248.97 1379.25 8247.23 1376.81 8244.92 1375.07C8242.64 1373.33 8239.83 1372.46 8236.49 1372.46C8233.04 1372.46 8230.16 1373.36 8227.86 1375.16C8225.55 1376.95 8223.81 1379.43 8222.64 1382.6C8221.47 1385.76 8220.89 1389.38 8220.89 1393.46C8220.89 1397.57 8221.47 1401.23 8222.64 1404.45C8223.84 1407.64 8225.59 1410.17 8227.9 1412.02C8230.24 1413.84 8233.1 1414.76 8236.49 1414.76ZM8312.73 1427.59C8306.14 1427.59 8300.46 1426.22 8295.67 1423.48C8290.91 1420.71 8287.24 1416.81 8284.68 1411.76C8282.11 1406.69 8280.83 1400.72 8280.83 1393.85C8280.83 1387.09 8282.11 1381.16 8284.68 1376.06C8287.27 1370.92 8290.89 1366.93 8295.54 1364.08C8300.19 1361.2 8305.64 1359.76 8311.92 1359.76C8315.96 1359.76 8319.78 1360.42 8323.38 1361.73C8327 1363.01 8330.19 1365.01 8332.96 1367.72C8335.75 1370.43 8337.94 1373.88 8339.54 1378.07C8341.14 1382.23 8341.94 1387.19 8341.94 1392.95V1397.69H8288.1V1387.26H8327.1C8327.07 1384.29 8326.43 1381.66 8325.17 1379.35C8323.92 1377.01 8322.17 1375.17 8319.91 1373.83C8317.69 1372.49 8315.1 1371.82 8312.13 1371.82C8308.97 1371.82 8306.19 1372.59 8303.79 1374.13C8301.4 1375.64 8299.53 1377.64 8298.19 1380.12C8296.88 1382.57 8296.21 1385.26 8296.18 1388.2V1397.31C8296.18 1401.13 8296.88 1404.41 8298.28 1407.14C8299.67 1409.85 8301.62 1411.93 8304.13 1413.39C8306.64 1414.81 8309.58 1415.53 8312.94 1415.53C8315.2 1415.53 8317.23 1415.21 8319.06 1414.59C8320.88 1413.93 8322.46 1412.97 8323.8 1411.72C8325.14 1410.47 8326.16 1408.91 8326.84 1407.06L8341.29 1408.68C8340.38 1412.5 8338.64 1415.84 8336.08 1418.69C8333.54 1421.51 8330.29 1423.71 8326.33 1425.28C8322.36 1426.82 8317.83 1427.59 8312.73 1427.59ZM8355.03 1426.3V1360.62H8370.04V1371.57H8370.73C8371.92 1367.77 8373.98 1364.85 8376.88 1362.8C8379.82 1360.72 8383.17 1359.68 8386.93 1359.68C8387.79 1359.68 8388.74 1359.72 8389.8 1359.81C8390.88 1359.86 8391.78 1359.96 8392.49 1360.11V1374.35C8391.84 1374.12 8390.8 1373.92 8389.37 1373.75C8387.97 1373.55 8386.62 1373.45 8385.31 1373.45C8382.49 1373.45 8379.95 1374.06 8377.7 1375.29C8375.47 1376.48 8373.72 1378.15 8372.44 1380.29C8371.15 1382.43 8370.51 1384.89 8370.51 1387.69V1426.3H8355.03Z" fill="white"/>
<path d="M2417.84 1429.15C2411.99 1429.15 2406.97 1427.35 2402.78 1423.76C2398.59 1420.17 2395.37 1415.02 2393.12 1408.32C2390.9 1401.6 2389.78 1393.54 2389.78 1384.16C2389.78 1374.81 2390.91 1366.77 2393.16 1360.04C2395.41 1353.32 2398.62 1348.16 2402.78 1344.56C2406.97 1340.97 2411.99 1339.18 2417.84 1339.18C2423.68 1339.18 2428.68 1340.97 2432.85 1344.56C2437.04 1348.16 2440.26 1353.32 2442.51 1360.04C2444.76 1366.77 2445.89 1374.81 2445.89 1384.16C2445.89 1393.54 2444.76 1401.6 2442.51 1408.32C2440.29 1415.02 2437.08 1420.17 2432.89 1423.76C2428.7 1427.35 2423.68 1429.15 2417.84 1429.15ZM2417.84 1424.19C2424.94 1424.19 2430.51 1420.67 2434.56 1413.63C2438.6 1406.56 2440.63 1396.73 2440.63 1384.16C2440.63 1375.78 2439.7 1368.6 2437.85 1362.61C2436.02 1356.62 2433.42 1352.05 2430.02 1348.88C2426.63 1345.69 2422.57 1344.09 2417.84 1344.09C2410.74 1344.09 2405.16 1347.63 2401.12 1354.7C2397.07 1361.77 2395.04 1371.59 2395.04 1384.16C2395.04 1392.54 2395.96 1399.73 2397.78 1405.71C2399.61 1411.67 2402.21 1416.25 2405.61 1419.44C2409.03 1422.61 2413.1 1424.19 2417.84 1424.19ZM2491.89 1429.15C2486.7 1429.15 2482.07 1428.17 2477.99 1426.2C2473.92 1424.2 2470.68 1421.48 2468.29 1418.03C2465.92 1414.55 2464.69 1410.56 2464.61 1406.06H2470.04C2470.12 1409.62 2471.14 1412.77 2473.08 1415.51C2475.01 1418.22 2477.61 1420.34 2480.86 1421.88C2484.14 1423.42 2487.79 1424.19 2491.81 1424.19C2496.17 1424.19 2499.99 1423.33 2503.27 1421.62C2506.57 1419.91 2509.15 1417.6 2511.01 1414.69C2512.86 1411.76 2513.79 1408.48 2513.79 1404.86C2513.79 1400.98 2512.77 1397.59 2510.75 1394.68C2508.73 1391.75 2505.9 1389.46 2502.28 1387.84C2498.66 1386.19 2494.46 1385.36 2489.67 1385.36H2486.42V1380.4H2489.67C2493.74 1380.4 2497.39 1379.66 2500.61 1378.18C2503.84 1376.66 2506.37 1374.54 2508.23 1371.8C2510.11 1369.07 2511.05 1365.83 2511.05 1362.1C2511.05 1358.59 2510.24 1355.48 2508.61 1352.77C2506.99 1350.07 2504.73 1347.94 2501.85 1346.4C2499 1344.86 2495.65 1344.09 2491.81 1344.09C2488.1 1344.09 2484.74 1344.85 2481.71 1346.36C2478.72 1347.87 2476.34 1349.99 2474.57 1352.73C2472.8 1355.47 2471.91 1358.65 2471.88 1362.27H2466.62C2466.68 1357.73 2467.82 1353.73 2470.04 1350.25C2472.29 1346.77 2475.3 1344.07 2479.06 1342.13C2482.85 1340.16 2487.13 1339.18 2491.89 1339.18C2496.74 1339.18 2500.99 1340.19 2504.63 1342.21C2508.31 1344.24 2511.16 1346.97 2513.19 1350.42C2515.24 1353.87 2516.27 1357.71 2516.27 1361.93C2516.27 1367 2514.85 1371.35 2512.03 1374.97C2509.24 1378.56 2505.45 1381.05 2500.66 1382.45V1382.92C2506.33 1384.18 2510.82 1386.76 2514.13 1390.66C2517.43 1394.57 2519.09 1399.3 2519.09 1404.86C2519.09 1409.42 2517.92 1413.54 2515.58 1417.22C2513.24 1420.9 2510.02 1423.8 2505.92 1425.94C2501.84 1428.08 2497.16 1429.15 2491.89 1429.15ZM2578.68 1427.95H2561.74L2592.58 1340.37H2612.16L2643.04 1427.95H2626.1L2602.71 1358.33H2602.03L2578.68 1427.95ZM2579.23 1393.61H2625.42V1406.36H2579.23V1393.61ZM2676.26 1429.11C2671.1 1429.11 2666.48 1427.78 2662.41 1425.13C2658.33 1422.48 2655.11 1418.63 2652.74 1413.58C2650.38 1408.54 2649.19 1402.41 2649.19 1395.2C2649.19 1387.9 2650.39 1381.74 2652.79 1376.72C2655.21 1371.68 2658.47 1367.87 2662.58 1365.3C2666.68 1362.71 2671.26 1361.41 2676.31 1361.41C2680.15 1361.41 2683.32 1362.07 2685.8 1363.38C2688.28 1364.66 2690.25 1366.22 2691.7 1368.04C2693.15 1369.84 2694.28 1371.53 2695.08 1373.13H2695.72V1340.37H2711.24V1427.95H2696.02V1417.6H2695.08C2694.28 1419.2 2693.13 1420.9 2691.61 1422.69C2690.1 1424.46 2688.11 1425.97 2685.63 1427.22C2683.15 1428.48 2680.03 1429.11 2676.26 1429.11ZM2680.58 1416.41C2683.86 1416.41 2686.65 1415.52 2688.96 1413.75C2691.27 1411.96 2693.03 1409.46 2694.22 1406.27C2695.42 1403.08 2696.02 1399.36 2696.02 1395.11C2696.02 1390.86 2695.42 1387.17 2694.22 1384.03C2693.05 1380.9 2691.31 1378.46 2689.01 1376.72C2686.73 1374.98 2683.92 1374.11 2680.58 1374.11C2677.13 1374.11 2674.25 1375.01 2671.94 1376.81C2669.63 1378.6 2667.9 1381.08 2666.73 1384.25C2665.56 1387.41 2664.97 1391.03 2664.97 1395.11C2664.97 1399.21 2665.56 1402.88 2666.73 1406.1C2667.92 1409.29 2669.68 1411.82 2671.99 1413.67C2674.32 1415.49 2677.19 1416.41 2680.58 1416.41ZM2786.41 1362.27L2763.02 1427.95H2745.91L2722.52 1362.27H2739.03L2754.12 1411.06H2754.81L2769.94 1362.27H2786.41ZM2823.96 1429.23C2817.38 1429.23 2811.69 1427.87 2806.9 1425.13C2802.14 1422.36 2798.48 1418.46 2795.91 1413.41C2793.35 1408.34 2792.06 1402.37 2792.06 1395.49C2792.06 1388.74 2793.35 1382.81 2795.91 1377.71C2798.51 1372.57 2802.13 1368.58 2806.77 1365.73C2811.42 1362.85 2816.88 1361.41 2823.15 1361.41C2827.2 1361.41 2831.02 1362.07 2834.61 1363.38C2838.23 1364.66 2841.43 1366.66 2844.19 1369.37C2846.99 1372.07 2849.18 1375.52 2850.78 1379.72C2852.37 1383.88 2853.17 1388.84 2853.17 1394.6V1399.34H2799.33V1388.91H2838.33C2838.3 1385.94 2837.66 1383.31 2836.41 1381C2835.15 1378.66 2833.4 1376.82 2831.15 1375.48C2828.93 1374.14 2826.33 1373.47 2823.37 1373.47C2820.2 1373.47 2817.42 1374.24 2815.03 1375.78C2812.63 1377.29 2810.77 1379.29 2809.43 1381.77C2808.11 1384.22 2807.44 1386.91 2807.42 1389.85V1398.96C2807.42 1402.78 2808.11 1406.06 2809.51 1408.79C2810.91 1411.5 2812.86 1413.58 2815.37 1415.04C2817.88 1416.46 2820.81 1417.18 2824.18 1417.18C2826.43 1417.18 2828.47 1416.86 2830.29 1416.23C2832.12 1415.58 2833.7 1414.62 2835.04 1413.37C2836.38 1412.11 2837.39 1410.56 2838.08 1408.71L2852.53 1410.33C2851.62 1414.15 2849.88 1417.49 2847.31 1420.34C2844.78 1423.16 2841.53 1425.36 2837.56 1426.93C2833.6 1428.46 2829.07 1429.23 2823.96 1429.23ZM2866.27 1427.95V1362.27H2881.28V1373.22H2881.96C2883.16 1369.42 2885.21 1366.5 2888.12 1364.45C2891.06 1362.37 2894.41 1361.33 2898.17 1361.33C2899.02 1361.33 2899.98 1361.37 2901.03 1361.46C2902.12 1361.51 2903.02 1361.61 2903.73 1361.75V1375.99C2903.07 1375.77 2902.03 1375.57 2900.61 1375.4C2899.21 1375.2 2897.86 1375.1 2896.54 1375.1C2893.72 1375.1 2891.18 1375.71 2888.93 1376.94C2886.71 1378.13 2884.96 1379.8 2883.67 1381.94C2882.39 1384.08 2881.75 1386.54 2881.75 1389.34V1427.95H2866.27ZM2950.34 1362.27V1374.24H2912.58V1362.27H2950.34ZM2921.9 1346.53H2937.38V1408.2C2937.38 1410.28 2937.7 1411.87 2938.32 1412.98C2938.98 1414.07 2939.83 1414.81 2940.89 1415.21C2941.94 1415.61 2943.11 1415.81 2944.4 1415.81C2945.36 1415.81 2946.25 1415.74 2947.05 1415.59C2947.87 1415.45 2948.5 1415.32 2948.93 1415.21L2951.54 1427.31C2950.71 1427.6 2949.53 1427.91 2947.99 1428.25C2946.48 1428.59 2944.62 1428.79 2942.43 1428.85C2938.55 1428.96 2935.06 1428.38 2931.95 1427.1C2928.84 1425.78 2926.38 1423.76 2924.55 1421.02C2922.76 1418.29 2921.87 1414.87 2921.9 1410.76V1346.53ZM2963.29 1427.95V1362.27H2978.77V1427.95H2963.29ZM2971.07 1352.95C2968.62 1352.95 2966.51 1352.13 2964.74 1350.51C2962.97 1348.85 2962.09 1346.87 2962.09 1344.56C2962.09 1342.23 2962.97 1340.25 2964.74 1338.62C2966.51 1336.97 2968.62 1336.14 2971.07 1336.14C2973.55 1336.14 2975.66 1336.97 2977.4 1338.62C2979.17 1340.25 2980.05 1342.23 2980.05 1344.56C2980.05 1346.87 2979.17 1348.85 2977.4 1350.51C2975.66 1352.13 2973.55 1352.95 2971.07 1352.95ZM2994.68 1427.95V1362.27H3009.69V1373.22H3010.38C3011.58 1369.42 3013.63 1366.5 3016.54 1364.45C3019.47 1362.37 3022.82 1361.33 3026.59 1361.33C3027.44 1361.33 3028.4 1361.37 3029.45 1361.46C3030.53 1361.51 3031.43 1361.61 3032.14 1361.75V1375.99C3031.49 1375.77 3030.45 1375.57 3029.02 1375.4C3027.63 1375.2 3026.27 1375.1 3024.96 1375.1C3022.14 1375.1 3019.6 1375.71 3017.35 1376.94C3015.13 1378.13 3013.37 1379.8 3012.09 1381.94C3010.81 1384.08 3010.16 1386.54 3010.16 1389.34V1427.95H2994.68Z" fill="white"/>
<rect x="2360.19" y="886.074" width="685.536" height="250.37" rx="125.185" fill="url(#paint80_linear_1208_90)"/>
<rect x="2312.92" y="1055.71" width="684.44" height="252.812" rx="126.406" transform="rotate(-60 2312.92 1055.71)" fill="url(#paint81_linear_1208_90)"/>
<rect x="2747.97" y="463.127" width="684.263" height="252.011" rx="126.006" transform="rotate(60 2747.97 463.127)" fill="url(#paint82_linear_1208_90)"/>
</g>
<defs>
<filter id="filter0_f_1208_90" x="5835.69" y="763.365" width="4864.31" height="3771.12" filterUnits="userSpaceOnUse" color-interpolation-filters="sRGB">
<feFlood flood-opacity="0" result="BackgroundImageFix"/>
<feBlend mode="normal" in="SourceGraphic" in2="BackgroundImageFix" result="shape"/>
<feGaussianBlur stdDeviation="174.3" result="effect1_foregroundBlur_1208_90"/>
</filter>
<filter id="filter1_f_1208_90" x="-281.417" y="-787.057" width="2166.95" height="2770.23" filterUnits="userSpaceOnUse" color-interpolation-filters="sRGB">
<feFlood flood-opacity="0" result="BackgroundImageFix"/>
<feBlend mode="normal" in="SourceGraphic" in2="BackgroundImageFix" result="shape"/>
<feGaussianBlur stdDeviation="44.3" result="effect1_foregroundBlur_1208_90"/>
</filter>
<linearGradient id="paint0_linear_1208_90" x1="7265.5" y1="1385" x2="8826.14" y2="1878.21" gradientUnits="userSpaceOnUse">
<stop stop-color="#52B3C7"/>
<stop offset="1" stop-color="#D8EC56"/>
</linearGradient>
<linearGradient id="paint1_linear_1208_90" x1="931.309" y1="577.799" x2="942.687" y2="1708.17" gradientUnits="userSpaceOnUse">
<stop stop-color="#00FFFF"/>
<stop offset="0.212959" stop-color="#0050CC"/>
<stop offset="1" stop-color="#0E0E11" stop-opacity="0"/>
</linearGradient>
<linearGradient id="paint2_linear_1208_90" x1="978.963" y1="821.4" x2="287.466" y2="821.4" gradientUnits="userSpaceOnUse">
<stop stop-color="#D9D9D9" stop-opacity="0.1"/>
<stop offset="1" stop-color="#D9D9D9"/>
</linearGradient>
<linearGradient id="paint3_linear_1208_90" x1="895.507" y1="821.394" x2="370.923" y2="821.394" gradientUnits="userSpaceOnUse">
<stop stop-color="#D9D9D9" stop-opacity="0.1"/>
<stop offset="1" stop-color="#D9D9D9"/>
</linearGradient>
<linearGradient id="paint4_linear_1208_90" x1="812.05" y1="821.398" x2="454.379" y2="821.398" gradientUnits="userSpaceOnUse">
<stop stop-color="#D9D9D9" stop-opacity="0.1"/>
<stop offset="1" stop-color="#D9D9D9"/>
</linearGradient>
<linearGradient id="paint5_linear_1208_90" x1="1407.55" y1="1128.27" x2="1932.14" y2="603.687" gradientUnits="userSpaceOnUse">
<stop stop-color="#D9D9D9"/>
<stop offset="1" stop-color="#D9D9D9" stop-opacity="0.1"/>
</linearGradient>
<linearGradient id="paint6_linear_1208_90" x1="1496.97" y1="1038.86" x2="2021.55" y2="514.271" gradientUnits="userSpaceOnUse">
<stop stop-color="#D9D9D9"/>
<stop offset="1" stop-color="#D9D9D9" stop-opacity="0.1"/>
</linearGradient>
<linearGradient id="paint7_linear_1208_90" x1="1497.58" y1="1038.86" x2="2004.28" y2="532.155" gradientUnits="userSpaceOnUse">
<stop stop-color="#D9D9D9"/>
<stop offset="1" stop-color="#D9D9D9" stop-opacity="0.1"/>
</linearGradient>
<linearGradient id="paint8_linear_1208_90" x1="1516.07" y1="1022.2" x2="2002.11" y2="536.156" gradientUnits="userSpaceOnUse">
<stop stop-color="#D9D9D9"/>
<stop offset="1" stop-color="#D9D9D9" stop-opacity="0.1"/>
</linearGradient>
<linearGradient id="paint9_linear_1208_90" x1="1518.51" y1="1020.13" x2="1989.45" y2="554.545" gradientUnits="userSpaceOnUse">
<stop stop-color="#D9D9D9"/>
<stop offset="1" stop-color="#D9D9D9" stop-opacity="0.1"/>
</linearGradient>
<linearGradient id="paint10_linear_1208_90" x1="1537.62" y1="1007.97" x2="1985.52" y2="560.067" gradientUnits="userSpaceOnUse">
<stop stop-color="#D9D9D9"/>
<stop offset="1" stop-color="#D9D9D9" stop-opacity="0.1"/>
</linearGradient>
<linearGradient id="paint11_linear_1208_90" x1="1556.72" y1="994.348" x2="1989.41" y2="561.654" gradientUnits="userSpaceOnUse">
<stop stop-color="#D9D9D9"/>
<stop offset="1" stop-color="#D9D9D9" stop-opacity="0.1"/>
</linearGradient>
<linearGradient id="paint12_linear_1208_90" x1="1575.82" y1="979.586" x2="1993.1" y2="564.674" gradientUnits="userSpaceOnUse">
<stop stop-color="#D9D9D9"/>
<stop offset="1" stop-color="#D9D9D9" stop-opacity="0.1"/>
</linearGradient>
<linearGradient id="paint13_linear_1208_90" x1="1594.92" y1="970.779" x2="1992.05" y2="573.649" gradientUnits="userSpaceOnUse">
<stop stop-color="#D9D9D9"/>
<stop offset="1" stop-color="#D9D9D9" stop-opacity="0.1"/>
</linearGradient>
<linearGradient id="paint14_linear_1208_90" x1="1601.02" y1="971.658" x2="1980.37" y2="594.477" gradientUnits="userSpaceOnUse">
<stop stop-color="#D9D9D9"/>
<stop offset="1" stop-color="#D9D9D9" stop-opacity="0.1"/>
</linearGradient>
<linearGradient id="paint15_linear_1208_90" x1="1608.34" y1="976.874" x2="1969.9" y2="615.308" gradientUnits="userSpaceOnUse">
<stop stop-color="#D9D9D9"/>
<stop offset="1" stop-color="#D9D9D9" stop-opacity="0.1"/>
</linearGradient>
<linearGradient id="paint16_linear_1208_90" x1="1628.66" y1="968.136" x2="1972.44" y2="624.352" gradientUnits="userSpaceOnUse">
<stop stop-color="#D9D9D9"/>
<stop offset="1" stop-color="#D9D9D9" stop-opacity="0.1"/>
</linearGradient>
<linearGradient id="paint17_linear_1208_90" x1="1637.8" y1="969.932" x2="1965.67" y2="645.793" gradientUnits="userSpaceOnUse">
<stop stop-color="#D9D9D9"/>
<stop offset="1" stop-color="#D9D9D9" stop-opacity="0.1"/>
</linearGradient>
<linearGradient id="paint18_linear_1208_90" x1="1646.41" y1="975.45" x2="1954.63" y2="667.23" gradientUnits="userSpaceOnUse">
<stop stop-color="#D9D9D9"/>
<stop offset="1" stop-color="#D9D9D9" stop-opacity="0.1"/>
</linearGradient>
<linearGradient id="paint19_linear_1208_90" x1="1668.05" y1="967.49" x2="1961.81" y2="678.712" gradientUnits="userSpaceOnUse">
<stop stop-color="#D9D9D9"/>
<stop offset="1" stop-color="#D9D9D9" stop-opacity="0.1"/>
</linearGradient>
<linearGradient id="paint20_linear_1208_90" x1="1691.25" y1="965.632" x2="1962.35" y2="688.302" gradientUnits="userSpaceOnUse">
<stop stop-color="#D9D9D9"/>
<stop offset="1" stop-color="#D9D9D9" stop-opacity="0.1"/>
</linearGradient>
<linearGradient id="paint21_linear_1208_90" x1="1709.88" y1="961.666" x2="1967.67" y2="702.422" gradientUnits="userSpaceOnUse">
<stop stop-color="#D9D9D9"/>
<stop offset="1" stop-color="#D9D9D9" stop-opacity="0.1"/>
</linearGradient>
<linearGradient id="paint22_linear_1208_90" x1="1731.62" y1="957.57" x2="1971.43" y2="719.123" gradientUnits="userSpaceOnUse">
<stop stop-color="#D9D9D9"/>
<stop offset="1" stop-color="#D9D9D9" stop-opacity="0.1"/>
</linearGradient>
<linearGradient id="paint23_linear_1208_90" x1="1754.62" y1="956.143" x2="1976.44" y2="734.326" gradientUnits="userSpaceOnUse">
<stop stop-color="#D9D9D9"/>
<stop offset="1" stop-color="#D9D9D9" stop-opacity="0.1"/>
</linearGradient>
<linearGradient id="paint24_linear_1208_90" x1="1777.42" y1="953.642" x2="1977.79" y2="752.113" gradientUnits="userSpaceOnUse">
<stop stop-color="#D9D9D9"/>
<stop offset="1" stop-color="#D9D9D9" stop-opacity="0.1"/>
</linearGradient>
<linearGradient id="paint25_linear_1208_90" x1="1798.96" y1="961.162" x2="1981.66" y2="777.415" gradientUnits="userSpaceOnUse">
<stop stop-color="#D9D9D9"/>
<stop offset="1" stop-color="#D9D9D9" stop-opacity="0.1"/>
</linearGradient>
<linearGradient id="paint26_linear_1208_90" x1="1820.5" y1="968.678" x2="1985.52" y2="802.714" gradientUnits="userSpaceOnUse">
<stop stop-color="#D9D9D9"/>
<stop offset="1" stop-color="#D9D9D9" stop-opacity="0.1"/>
</linearGradient>
<linearGradient id="paint27_linear_1208_90" x1="1842.04" y1="976.197" x2="1989.38" y2="828.014" gradientUnits="userSpaceOnUse">
<stop stop-color="#D9D9D9"/>
<stop offset="1" stop-color="#D9D9D9" stop-opacity="0.1"/>
</linearGradient>
<linearGradient id="paint28_linear_1208_90" x1="1863.58" y1="968.069" x2="1994.73" y2="836.178" gradientUnits="userSpaceOnUse">
<stop stop-color="#D9D9D9"/>
<stop offset="1" stop-color="#D9D9D9" stop-opacity="0.1"/>
</linearGradient>
<linearGradient id="paint29_linear_1208_90" x1="1883.19" y1="973.218" x2="1998.39" y2="860.599" gradientUnits="userSpaceOnUse">
<stop stop-color="#D9D9D9"/>
<stop offset="1" stop-color="#D9D9D9" stop-opacity="0.1"/>
</linearGradient>
<linearGradient id="paint30_linear_1208_90" x1="1906.67" y1="980.328" x2="2002.05" y2="885.491" gradientUnits="userSpaceOnUse">
<stop stop-color="#D9D9D9"/>
<stop offset="1" stop-color="#D9D9D9" stop-opacity="0.1"/>
</linearGradient>
<linearGradient id="paint31_linear_1208_90" x1="1927.33" y1="988.66" x2="2006.14" y2="911.165" gradientUnits="userSpaceOnUse">
<stop stop-color="#D9D9D9"/>
<stop offset="1" stop-color="#D9D9D9" stop-opacity="0.1"/>
</linearGradient>
<linearGradient id="paint32_linear_1208_90" x1="1949.75" y1="997.878" x2="2009.36" y2="938.266" gradientUnits="userSpaceOnUse">
<stop stop-color="#D9D9D9"/>
<stop offset="1" stop-color="#D9D9D9" stop-opacity="0.1"/>
</linearGradient>
<linearGradient id="paint33_linear_1208_90" x1="1970.11" y1="1009.7" x2="2013.26" y2="967.967" gradientUnits="userSpaceOnUse">
<stop stop-color="#D9D9D9"/>
<stop offset="1" stop-color="#D9D9D9" stop-opacity="0.1"/>
</linearGradient>
<linearGradient id="paint34_linear_1208_90" x1="1992.43" y1="1021.25" x2="2016.54" y2="997.267" gradientUnits="userSpaceOnUse">
<stop stop-color="#D9D9D9"/>
<stop offset="1" stop-color="#D9D9D9" stop-opacity="0.1"/>
</linearGradient>
<linearGradient id="paint35_linear_1208_90" x1="2014.07" y1="1034.45" x2="2020.3" y2="1028.22" gradientUnits="userSpaceOnUse">
<stop stop-color="#D9D9D9"/>
<stop offset="1" stop-color="#D9D9D9" stop-opacity="0.1"/>
</linearGradient>
<linearGradient id="paint36_linear_1208_90" x1="1496.97" y1="1038.25" x2="2003.67" y2="531.546" gradientUnits="userSpaceOnUse">
<stop stop-color="#D9D9D9"/>
<stop offset="1" stop-color="#D9D9D9" stop-opacity="0.1"/>
</linearGradient>
<linearGradient id="paint37_linear_1208_90" x1="1513.63" y1="1019.75" x2="1999.67" y2="533.713" gradientUnits="userSpaceOnUse">
<stop stop-color="#D9D9D9"/>
<stop offset="1" stop-color="#D9D9D9" stop-opacity="0.1"/>
</linearGradient>
<linearGradient id="paint38_linear_1208_90" x1="1515.7" y1="1017.32" x2="1981.28" y2="546.383" gradientUnits="userSpaceOnUse">
<stop stop-color="#D9D9D9"/>
<stop offset="1" stop-color="#D9D9D9" stop-opacity="0.1"/>
</linearGradient>
<linearGradient id="paint39_linear_1208_90" x1="1527.86" y1="998.214" x2="1975.76" y2="550.312" gradientUnits="userSpaceOnUse">
<stop stop-color="#D9D9D9"/>
<stop offset="1" stop-color="#D9D9D9" stop-opacity="0.1"/>
</linearGradient>
<linearGradient id="paint40_linear_1208_90" x1="1541.48" y1="979.11" x2="1974.17" y2="546.416" gradientUnits="userSpaceOnUse">
<stop stop-color="#D9D9D9"/>
<stop offset="1" stop-color="#D9D9D9" stop-opacity="0.1"/>
</linearGradient>
<linearGradient id="paint41_linear_1208_90" x1="1556.24" y1="960.006" x2="1971.16" y2="542.723" gradientUnits="userSpaceOnUse">
<stop stop-color="#D9D9D9"/>
<stop offset="1" stop-color="#D9D9D9" stop-opacity="0.1"/>
</linearGradient>
<linearGradient id="paint42_linear_1208_90" x1="1565.05" y1="940.902" x2="1962.18" y2="543.772" gradientUnits="userSpaceOnUse">
<stop stop-color="#D9D9D9"/>
<stop offset="1" stop-color="#D9D9D9" stop-opacity="0.1"/>
</linearGradient>
<linearGradient id="paint43_linear_1208_90" x1="1564.17" y1="934.809" x2="1941.35" y2="555.461" gradientUnits="userSpaceOnUse">
<stop stop-color="#D9D9D9"/>
<stop offset="1" stop-color="#D9D9D9" stop-opacity="0.1"/>
</linearGradient>
<linearGradient id="paint44_linear_1208_90" x1="1558.95" y1="927.489" x2="1920.52" y2="565.923" gradientUnits="userSpaceOnUse">
<stop stop-color="#D9D9D9"/>
<stop offset="1" stop-color="#D9D9D9" stop-opacity="0.1"/>
</linearGradient>
<linearGradient id="paint45_linear_1208_90" x1="1567.69" y1="907.17" x2="1911.48" y2="563.386" gradientUnits="userSpaceOnUse">
<stop stop-color="#D9D9D9"/>
<stop offset="1" stop-color="#D9D9D9" stop-opacity="0.1"/>
</linearGradient>
<linearGradient id="paint46_linear_1208_90" x1="1565.9" y1="898.023" x2="1890.04" y2="570.158" gradientUnits="userSpaceOnUse">
<stop stop-color="#D9D9D9"/>
<stop offset="1" stop-color="#D9D9D9" stop-opacity="0.1"/>
</linearGradient>
<linearGradient id="paint47_linear_1208_90" x1="1560.38" y1="889.424" x2="1868.6" y2="581.204" gradientUnits="userSpaceOnUse">
<stop stop-color="#D9D9D9"/>
<stop offset="1" stop-color="#D9D9D9" stop-opacity="0.1"/>
</linearGradient>
<linearGradient id="paint48_linear_1208_90" x1="1568.34" y1="867.776" x2="1857.11" y2="574.018" gradientUnits="userSpaceOnUse">
<stop stop-color="#D9D9D9"/>
<stop offset="1" stop-color="#D9D9D9" stop-opacity="0.1"/>
</linearGradient>
<linearGradient id="paint49_linear_1208_90" x1="1570.2" y1="844.574" x2="1847.53" y2="573.476" gradientUnits="userSpaceOnUse">
<stop stop-color="#D9D9D9"/>
<stop offset="1" stop-color="#D9D9D9" stop-opacity="0.1"/>
</linearGradient>
<linearGradient id="paint50_linear_1208_90" x1="1574.16" y1="825.948" x2="1833.4" y2="568.161" gradientUnits="userSpaceOnUse">
<stop stop-color="#D9D9D9"/>
<stop offset="1" stop-color="#D9D9D9" stop-opacity="0.1"/>
</linearGradient>
<linearGradient id="paint51_linear_1208_90" x1="1578.26" y1="804.204" x2="1816.71" y2="564.401" gradientUnits="userSpaceOnUse">
<stop stop-color="#D9D9D9"/>
<stop offset="1" stop-color="#D9D9D9" stop-opacity="0.1"/>
</linearGradient>
<linearGradient id="paint52_linear_1208_90" x1="1579.68" y1="781.204" x2="1801.5" y2="559.387" gradientUnits="userSpaceOnUse">
<stop stop-color="#D9D9D9"/>
<stop offset="1" stop-color="#D9D9D9" stop-opacity="0.1"/>
</linearGradient>
<linearGradient id="paint53_linear_1208_90" x1="1582.19" y1="758.409" x2="1783.72" y2="558.032" gradientUnits="userSpaceOnUse">
<stop stop-color="#D9D9D9"/>
<stop offset="1" stop-color="#D9D9D9" stop-opacity="0.1"/>
</linearGradient>
<linearGradient id="paint54_linear_1208_90" x1="1574.67" y1="736.866" x2="1758.42" y2="554.169" gradientUnits="userSpaceOnUse">
<stop stop-color="#D9D9D9"/>
<stop offset="1" stop-color="#D9D9D9" stop-opacity="0.1"/>
</linearGradient>
<linearGradient id="paint55_linear_1208_90" x1="1567.15" y1="715.329" x2="1733.12" y2="550.312" gradientUnits="userSpaceOnUse">
<stop stop-color="#D9D9D9"/>
<stop offset="1" stop-color="#D9D9D9" stop-opacity="0.1"/>
</linearGradient>
<linearGradient id="paint56_linear_1208_90" x1="1559.63" y1="693.782" x2="1707.81" y2="546.446" gradientUnits="userSpaceOnUse">
<stop stop-color="#D9D9D9"/>
<stop offset="1" stop-color="#D9D9D9" stop-opacity="0.1"/>
</linearGradient>
<linearGradient id="paint57_linear_1208_90" x1="1567.76" y1="672.244" x2="1699.65" y2="541.098" gradientUnits="userSpaceOnUse">
<stop stop-color="#D9D9D9"/>
<stop offset="1" stop-color="#D9D9D9" stop-opacity="0.1"/>
</linearGradient>
<linearGradient id="paint58_linear_1208_90" x1="1562.61" y1="652.631" x2="1675.23" y2="537.438" gradientUnits="userSpaceOnUse">
<stop stop-color="#D9D9D9"/>
<stop offset="1" stop-color="#D9D9D9" stop-opacity="0.1"/>
</linearGradient>
<linearGradient id="paint59_linear_1208_90" x1="1555.5" y1="629.164" x2="1650.34" y2="533.785" gradientUnits="userSpaceOnUse">
<stop stop-color="#D9D9D9"/>
<stop offset="1" stop-color="#D9D9D9" stop-opacity="0.1"/>
</linearGradient>
<linearGradient id="paint60_linear_1208_90" x1="1547.17" y1="608.503" x2="1624.66" y2="529.687" gradientUnits="userSpaceOnUse">
<stop stop-color="#D9D9D9"/>
<stop offset="1" stop-color="#D9D9D9" stop-opacity="0.1"/>
</linearGradient>
<linearGradient id="paint61_linear_1208_90" x1="1537.95" y1="586.075" x2="1597.57" y2="526.463" gradientUnits="userSpaceOnUse">
<stop stop-color="#D9D9D9"/>
<stop offset="1" stop-color="#D9D9D9" stop-opacity="0.1"/>
</linearGradient>
<linearGradient id="paint62_linear_1208_90" x1="1526.13" y1="565.726" x2="1567.86" y2="522.576" gradientUnits="userSpaceOnUse">
<stop stop-color="#D9D9D9"/>
<stop offset="1" stop-color="#D9D9D9" stop-opacity="0.1"/>
</linearGradient>
<linearGradient id="paint63_linear_1208_90" x1="1514.58" y1="543.401" x2="1538.56" y2="519.285" gradientUnits="userSpaceOnUse">
<stop stop-color="#D9D9D9"/>
<stop offset="1" stop-color="#D9D9D9" stop-opacity="0.1"/>
</linearGradient>
<linearGradient id="paint64_linear_1208_90" x1="1501.37" y1="521.762" x2="1507.61" y2="515.53" gradientUnits="userSpaceOnUse">
<stop stop-color="#D9D9D9"/>
<stop offset="1" stop-color="#D9D9D9" stop-opacity="0.1"/>
</linearGradient>
<linearGradient id="paint65_linear_1208_90" x1="3428.33" y1="676.173" x2="3940.99" y2="1007.02" gradientUnits="userSpaceOnUse">
<stop stop-color="#D9D9D9" stop-opacity="0.1"/>
<stop offset="1" stop-color="#D9D9D9"/>
</linearGradient>
<linearGradient id="paint66_linear_1208_90" x1="3940.99" y1="711.939" x2="3386.6" y2="831.163" gradientUnits="userSpaceOnUse">
<stop stop-color="#D9D9D9" stop-opacity="0.1"/>
<stop offset="1" stop-color="#D9D9D9"/>
</linearGradient>
<linearGradient id="paint67_linear_1208_90" x1="5083.14" y1="902.959" x2="4450.55" y2="902.959" gradientUnits="userSpaceOnUse">
<stop stop-color="#D9D9D9" stop-opacity="0.1"/>
<stop offset="1" stop-color="#D9D9D9"/>
</linearGradient>
<linearGradient id="paint68_linear_1208_90" x1="5083.14" y1="796.005" x2="4450.55" y2="796.004" gradientUnits="userSpaceOnUse">
<stop stop-color="#D9D9D9" stop-opacity="0.1"/>
<stop offset="1" stop-color="#D9D9D9"/>
</linearGradient>
<linearGradient id="paint69_linear_1208_90" x1="5083.14" y1="689.052" x2="4450.55" y2="689.052" gradientUnits="userSpaceOnUse">
<stop stop-color="#D9D9D9" stop-opacity="0.1"/>
<stop offset="1" stop-color="#D9D9D9"/>
</linearGradient>
<linearGradient id="paint70_linear_1208_90" x1="5846.81" y1="721.117" x2="5846.81" y2="1126.02" gradientUnits="userSpaceOnUse">
<stop stop-color="#D9D9D9"/>
<stop offset="1" stop-color="#D9D9D9" stop-opacity="0.1"/>
</linearGradient>
<linearGradient id="paint71_linear_1208_90" x1="5441.91" y1="721.099" x2="5846.81" y2="721.099" gradientUnits="userSpaceOnUse">
<stop stop-color="#D9D9D9"/>
<stop offset="1" stop-color="#D9D9D9" stop-opacity="0.1"/>
</linearGradient>
<linearGradient id="paint72_linear_1208_90" x1="5846.81" y1="721.099" x2="6251.71" y2="721.099" gradientUnits="userSpaceOnUse">
<stop stop-color="#D9D9D9" stop-opacity="0.1"/>
<stop offset="1" stop-color="#D9D9D9"/>
</linearGradient>
<linearGradient id="paint73_linear_1208_90" x1="6622.07" y1="924.002" x2="7027.43" y2="924.003" gradientUnits="userSpaceOnUse">
<stop stop-color="#D9D9D9"/>
<stop offset="1" stop-color="#D9D9D9" stop-opacity="0.1"/>
</linearGradient>
<linearGradient id="paint74_linear_1208_90" x1="7027.43" y1="1126.68" x2="7027.43" y2="721.327" gradientUnits="userSpaceOnUse">
<stop stop-color="#D9D9D9"/>
<stop offset="1" stop-color="#D9D9D9" stop-opacity="0.1"/>
</linearGradient>
<linearGradient id="paint75_linear_1208_90" x1="7230.1" y1="721.317" x2="6824.75" y2="721.317" gradientUnits="userSpaceOnUse">
<stop stop-color="#D9D9D9"/>
<stop offset="1" stop-color="#D9D9D9" stop-opacity="0.1"/>
</linearGradient>
<linearGradient id="paint76_linear_1208_90" x1="6824.75" y1="518.64" x2="6824.75" y2="923.999" gradientUnits="userSpaceOnUse">
<stop stop-color="#D9D9D9"/>
<stop offset="1" stop-color="#D9D9D9" stop-opacity="0.1"/>
</linearGradient>
<linearGradient id="paint77_linear_1208_90" x1="8341.15" y1="948.804" x2="7673.5" y2="948.804" gradientUnits="userSpaceOnUse">
<stop stop-color="#D9D9D9"/>
<stop offset="1" stop-color="#D9D9D9" stop-opacity="0.1"/>
</linearGradient>
<linearGradient id="paint78_linear_1208_90" x1="8257.7" y1="904.097" x2="7756.96" y2="904.097" gradientUnits="userSpaceOnUse">
<stop stop-color="#D9D9D9"/>
<stop offset="1" stop-color="#D9D9D9" stop-opacity="0.1"/>
</linearGradient>
<linearGradient id="paint79_linear_1208_90" x1="7756.96" y1="656.706" x2="8257.7" y2="656.706" gradientUnits="userSpaceOnUse">
<stop stop-color="#D9D9D9"/>
<stop offset="1" stop-color="#D9D9D9" stop-opacity="0.1"/>
</linearGradient>
<linearGradient id="paint80_linear_1208_90" x1="2360.19" y1="1011.26" x2="3045.73" y2="1011.26" gradientUnits="userSpaceOnUse">
<stop stop-color="#D9D9D9"/>
<stop offset="1" stop-color="#D9D9D9" stop-opacity="0.1"/>
</linearGradient>
<linearGradient id="paint81_linear_1208_90" x1="2312.92" y1="1182.12" x2="2997.36" y2="1182.12" gradientUnits="userSpaceOnUse">
<stop stop-color="#D9D9D9" stop-opacity="0.1"/>
<stop offset="1" stop-color="#D9D9D9"/>
</linearGradient>
<linearGradient id="paint82_linear_1208_90" x1="2747.97" y1="589.133" x2="3432.23" y2="589.133" gradientUnits="userSpaceOnUse">
<stop stop-color="#D9D9D9" stop-opacity="0.1"/>
<stop offset="1" stop-color="#D9D9D9"/>
</linearGradient>
<clipPath id="clip0_1208_90">
<rect width="8647" height="1797" fill="white"/>
</clipPath>
<clipPath id="clip1_1208_90">
<rect width="975.501" height="972.393" fill="white" transform="translate(5360.29 338.343)"/>
</clipPath>
</defs>
</svg>
